<svg width="22" height="24" viewBox="0 0 22 24" fill="none" xmlns="http://www.w3.org/2000/svg">
<path d="M1.5437 22.4563L7.40627 16.5937" stroke="#C59648" stroke-miterlimit="10" stroke-linecap="round" stroke-linejoin="round"/>
<path d="M20.1332 22.4563L14.203 16.5261" stroke="#C59648" stroke-miterlimit="10" stroke-linecap="round" stroke-linejoin="round"/>
<path d="M12.851 23H18.8207C19.8459 23 20.677 22.1689 20.677 21.1437V10.7744C20.677 10.2822 20.4816 9.81025 20.1337 9.46217L18.5269 7.85456" stroke="#C59648" stroke-miterlimit="10" stroke-linecap="round" stroke-linejoin="round"/>
<path d="M3.13589 7.87383L1.54407 9.46199C1.37158 9.63438 1.23475 9.83908 1.14139 10.0644C1.04804 10.2897 0.999994 10.5311 1 10.775V21.1437C1 22.1689 1.83108 23 2.8563 23H8.82602" stroke="#C59648" stroke-miterlimit="10" stroke-linecap="round" stroke-linejoin="round"/>
<path d="M14.0879 3.4126L11.6773 1.00061L10.0113 1.00007L7.59741 3.41255" stroke="#C59648" stroke-miterlimit="10" stroke-linecap="round" stroke-linejoin="round"/>
<path d="M20.4913 10.1915L12.1566 18.5314C11.4318 19.2565 10.2565 19.2569 9.53136 18.5321L1.21655 10.2224" stroke="#C59648" stroke-miterlimit="10" stroke-linecap="round" stroke-linejoin="round"/>
<path d="M11.3798 11.8407H10.6684C9.62579 11.8407 8.78066 10.9956 8.78066 9.95305C8.78066 8.91053 9.62579 8.06532 10.6684 8.06532C11.6477 8.06532 12.4416 8.85924 12.4416 9.83861V10.8738C12.4416 11.4735 12.9278 11.9597 13.5276 11.9597C14.1274 11.9597 14.6136 11.4735 14.6136 10.8738V9.95735C14.6136 7.87239 12.9234 6.18223 10.8385 6.18223C8.75352 6.18223 7.06335 7.87239 7.06335 9.95735C7.06335 12.0742 8.77941 13.7903 10.8963 13.7903H13.6143" stroke="#C59648" stroke-miterlimit="10" stroke-linecap="round" stroke-linejoin="round"/>
<path d="M3.14661 12.1453V4.75411C3.14661 4.01314 3.74725 3.4125 4.48822 3.4125H17.1888C17.9298 3.4125 18.5304 4.01314 18.5304 4.75411V11.9988" stroke="#C59648" stroke-miterlimit="10" stroke-linecap="round" stroke-linejoin="round"/>
</svg>
