<svg width="16" height="22" viewBox="0 0 16 22" fill="none" xmlns="http://www.w3.org/2000/svg">
<path d="M8.04215 1.71901C7.80454 1.71729 7.61075 1.9085 7.60903 2.14569C7.60731 2.38287 7.79809 2.57666 8.03571 2.57838C8.27289 2.5801 8.46668 2.38932 8.4684 2.15213C8.47012 1.91494 8.27934 1.72115 8.04215 1.71901ZM8.0226 4.29709C6.36354 4.28531 5.00482 5.62375 4.99227 7.2823C4.97977 8.94076 6.31893 10.3001 7.97749 10.3126L8.00052 10.3127C9.6485 10.3127 10.9954 8.97828 11.0078 7.32742C11.0203 5.66904 9.6812 4.30959 8.0226 4.29709ZM8.00043 9.45338L7.98393 9.4533C6.79924 9.44436 5.84267 8.47335 5.85161 7.28874C5.8605 6.10947 6.82248 5.15633 7.99966 5.15633L8.01616 5.15642C9.20085 5.16536 10.1574 6.13637 10.1485 7.32097C10.1395 8.50025 9.1776 9.45338 8.00043 9.45338ZM9.87481 2.04488C9.65129 1.96556 9.40555 2.08265 9.32623 2.30635C9.24695 2.53004 9.36404 2.77561 9.5877 2.85493C11.4803 3.52571 12.7417 5.32829 12.7266 7.34039C12.7248 7.57767 12.9157 7.7715 13.153 7.7733H13.1563C13.3921 7.7733 13.5841 7.58304 13.5859 7.34684C13.6038 4.96865 12.1124 2.83795 9.87481 2.04488Z" fill="#C59648"/>
<path d="M10.6365 16.1752C13.4945 12.4965 15.2805 10.5781 15.3046 7.3596C15.3349 3.3101 12.0486 0 7.99935 0C3.99741 0 0.725858 3.24105 0.695436 7.25003C0.670858 10.5558 2.49011 12.4716 5.36782 16.1746C2.50502 16.6024 0.695436 17.6774 0.695436 18.9922C0.695436 19.8729 1.50952 20.6632 2.98778 21.2175C4.33326 21.7221 6.11332 22 8.00004 22C9.88675 22 11.6668 21.7221 13.0123 21.2175C14.4906 20.6632 15.3046 19.8729 15.3046 18.9921C15.3046 17.6781 13.4967 16.6034 10.6365 16.1752ZM1.55477 7.25652C1.58158 3.71895 4.46801 0.859375 7.99944 0.859375C11.5727 0.859375 14.4719 3.78073 14.4453 7.3532C14.4224 10.4097 12.5283 12.2934 9.50429 16.2354C8.9649 16.9382 8.46956 17.6027 8.00068 18.2527C7.53318 17.6023 7.04772 16.9498 6.50026 16.2352C3.35125 12.1281 1.53148 10.3868 1.55477 7.25652ZM8.00004 21.1406C4.31113 21.1406 1.55477 20.0064 1.55477 18.9922C1.55477 18.2401 3.20253 17.2899 5.97307 16.9609C6.58551 17.7645 7.12244 18.4945 7.64907 19.2401C7.68871 19.2962 7.74124 19.342 7.80224 19.3737C7.86324 19.4053 7.93094 19.4218 7.99965 19.4219H8.00004C8.06869 19.4219 8.13635 19.4054 8.19734 19.3739C8.25833 19.3424 8.31087 19.2967 8.35058 19.2407C8.87222 18.5048 9.42385 17.7568 10.031 16.9614C12.799 17.2908 14.4453 18.2406 14.4453 18.9922C14.4453 20.0064 11.6889 21.1406 8.00004 21.1406Z" fill="#C59648"/>
</svg>
