<svg width="40" height="40" viewBox="0 0 40 40" fill="none" xmlns="http://www.w3.org/2000/svg">
<path d="M19.9998 14.8878C21.6755 14.8878 23.0465 16.2588 23.0465 17.9345V19.4579C23.0465 21.1335 21.6755 22.5046 19.9998 22.5046C18.3241 22.5046 16.9531 21.1335 16.9531 19.4579V17.9345C16.9531 16.2588 18.3241 14.8878 19.9998 14.8878Z" stroke="white" stroke-miterlimit="22.926" stroke-linecap="round" stroke-linejoin="round"/>
<path d="M14.6685 27.6235V26.3129C14.6685 24.3858 15.7047 22.689 17.2474 21.7521M22.753 21.7521C24.2958 22.689 25.332 24.3859 25.332 26.3129V27.6235" stroke="white" stroke-miterlimit="22.926" stroke-linecap="round" stroke-linejoin="round"/>
<path d="M20 32.5001C26.8847 32.5001 32.4999 26.8849 32.4999 20.0002C32.4999 13.1154 26.8847 7.50012 20 7.50012C13.1152 7.50012 7.5 13.1154 7.5 20.0002C7.5 26.8849 13.1152 32.5001 20 32.5001Z" stroke="white" stroke-miterlimit="22.926" stroke-linecap="round" stroke-linejoin="round"/>
<path d="M23.4537 11.2821C26.9221 12.6574 29.3749 16.0422 29.3749 20.0002C29.3749 25.1778 25.1775 29.3751 20 29.3751C14.8223 29.3751 10.625 25.1778 10.625 20.0002C10.625 16.0424 13.0776 12.6576 16.5456 11.2823" stroke="white" stroke-miterlimit="22.926" stroke-linecap="round" stroke-linejoin="round"/>
<path d="M37.0092 0.781342L39.2189 2.9911L35.9043 6.30562L37.5616 7.96296L31.4849 8.51538L32.0373 2.43868L33.6946 4.09594L37.0092 0.781342Z" stroke="white" stroke-miterlimit="22.926" stroke-linecap="round" stroke-linejoin="round"/>
<path d="M0.78125 2.99114L2.99093 0.781464L6.30561 4.09606L7.96287 2.4388L8.51529 8.5155L2.43859 7.96308L4.09585 6.30574L0.78125 2.99114Z" stroke="white" stroke-miterlimit="22.926" stroke-linecap="round" stroke-linejoin="round"/>
<path d="M2.99093 39.2189L0.78125 37.0092L4.09585 33.6946L2.43859 32.0373L8.51529 31.4848L7.96279 37.5616L6.30553 35.9043L2.99093 39.2189Z" stroke="white" stroke-miterlimit="22.926" stroke-linecap="round" stroke-linejoin="round"/>
<path d="M39.2189 37.0091L37.0092 39.2188L33.6946 35.9042L32.0374 37.5615L31.4849 31.4847L37.5616 32.0372L35.9043 33.6945L39.2189 37.0091Z" stroke="white" stroke-miterlimit="22.926" stroke-linecap="round" stroke-linejoin="round"/>
<path d="M19.9995 10.6251H20.0001" stroke="white" stroke-miterlimit="2.613" stroke-linecap="round" stroke-linejoin="round"/>
</svg>
