<svg width="40" height="40" viewBox="0 0 40 40" fill="none" xmlns="http://www.w3.org/2000/svg">
<path d="M12.7424 6.80887C12.7424 8.70411 11.8599 10.3938 10.484 11.4897C9.46266 12.3031 8.16906 12.7895 6.7618 12.7895C5.35453 12.7895 4.06094 12.3032 3.03961 11.4897C1.66375 10.3938 0.78125 8.70411 0.78125 6.80887C0.78125 3.50637 3.4593 0.828247 6.7618 0.828247C10.0643 0.828247 12.7424 3.50637 12.7424 6.80887ZM39.2188 33.191C39.2188 35.0862 38.3363 36.7759 36.9603 37.8718C35.939 38.6853 34.6454 39.1716 33.2381 39.1716C31.8309 39.1716 30.5373 38.6853 29.5159 37.8718C28.14 36.7759 27.2575 35.0862 27.2575 33.191C27.2575 29.8885 29.9355 27.2104 33.238 27.2104C36.5405 27.2104 39.2188 29.8885 39.2188 33.191Z" stroke="white" stroke-miterlimit="10" stroke-linecap="round" stroke-linejoin="round"/>
<path d="M33.2379 34.2107C32.2124 34.2107 31.381 33.3794 31.381 32.3539V31.9908C31.381 30.9653 32.2124 30.1339 33.2379 30.1339C34.2635 30.1339 35.0948 30.9653 35.0948 31.9908V32.3539C35.0949 33.3794 34.2635 34.2107 33.2379 34.2107ZM36.9603 36.3492V37.8718C35.9389 38.6853 34.6453 39.1716 33.2381 39.1716C31.8308 39.1716 30.5372 38.6853 29.5159 37.8718V36.3492C29.5159 35.1678 30.4729 34.2108 31.6542 34.2108H34.8218C36.0032 34.2108 36.9603 35.1678 36.9603 36.3492ZM6.76166 7.82863C5.73611 7.82863 4.90479 6.9973 4.90479 5.97175V5.60871C4.90479 4.58316 5.73611 3.75183 6.76166 3.75183C7.78721 3.75183 8.61853 4.58316 8.61853 5.60871V5.97175C8.61853 6.9973 7.78713 7.82863 6.76166 7.82863ZM10.4839 9.96707V11.4896C9.4626 12.3031 8.169 12.7895 6.76174 12.7895C5.35447 12.7895 4.06088 12.3032 3.03955 11.4896V9.96707C3.03955 8.78566 3.99658 7.82871 5.17791 7.82871H8.34549C9.52697 7.82871 10.4839 8.78566 10.4839 9.96707Z" stroke="white" stroke-miterlimit="10" stroke-linecap="round" stroke-linejoin="round"/>
<path d="M26.6213 26.5101C30.2348 22.8964 30.2347 17.0376 26.6211 13.4241C23.0074 9.81052 17.1486 9.81063 13.5351 13.4243C9.92154 17.038 9.92164 22.8968 13.5353 26.5103C17.149 30.1238 23.0078 30.1237 26.6213 26.5101Z" stroke="white" stroke-miterlimit="10" stroke-linecap="round" stroke-linejoin="round"/>
<path d="M20.0787 29.2204C22.0409 29.2204 23.6315 25.0776 23.6315 19.9672C23.6315 14.8568 22.0409 10.714 20.0787 10.714C18.1165 10.714 16.5259 14.8568 16.5259 19.9672C16.5259 25.0776 18.1165 29.2204 20.0787 29.2204Z" stroke="white" stroke-miterlimit="10" stroke-linecap="round" stroke-linejoin="round"/>
<path d="M10.8253 19.9671H29.3317M33.395 20.619L35.3629 23.085L37.8131 21.2229M4.80622 16.6858L4.79685 16.6716C4.50286 18.0748 4.39841 19.5483 4.5088 21.061C4.70193 23.7074 5.66849 26.2396 7.16833 28.4238" stroke="white" stroke-miterlimit="10" stroke-linecap="round" stroke-linejoin="round"/>
<path d="M35.3625 23.0853C35.5788 22.0473 35.6889 20.99 35.6911 19.9297C35.7148 11.3855 28.7904 4.36366 20.2466 4.27366C19.3332 4.26361 18.4206 4.33322 17.5193 4.4817M12.1161 33.1656C14.2362 34.4913 16.6469 35.3262 19.1478 35.4713C20.4475 35.5467 21.7162 35.463 22.935 35.2378M6.77393 19.1518L4.80611 16.6857L2.35596 18.5479" stroke="white" stroke-miterlimit="10" stroke-linecap="round" stroke-linejoin="round"/>
</svg>
