<svg width="34" height="40" viewBox="0 0 34 40" fill="none" xmlns="http://www.w3.org/2000/svg">
<path d="M16.9993 0.781364L33.2499 5.8726V19.5461C33.2499 29.1513 26.4323 37.4048 17 39.2188C7.56756 37.4048 0.75 29.1513 0.75 19.5461V5.8726L17.0006 0.781364" stroke="white" stroke-miterlimit="10" stroke-linecap="round" stroke-linejoin="round"/>
<path d="M27.0529 26.8676C28.22 24.6682 28.8749 22.1701 28.8749 19.5461V9.08665L17 5.36627L5.125 9.08665V19.5461C5.125 26.7569 10.0705 33.0164 17 34.7405C18.9795 34.2483 20.8431 33.3723 22.4851 32.1621" stroke="white" stroke-miterlimit="10" stroke-linecap="round" stroke-linejoin="round"/>
<path d="M15.5809 25.0981L10.3494 19.8666L13.001 17.2149L15.5809 19.7949L20.9989 14.3768L23.6506 17.0285L15.5809 25.0981Z" stroke="white" stroke-miterlimit="10" stroke-linecap="round" stroke-linejoin="round"/>
</svg>
