<svg width="40" height="32" viewBox="0 0 40 32" fill="none" xmlns="http://www.w3.org/2000/svg">
<path d="M2.89607 20.1906C2.75083 20.0453 2.54927 19.9617 2.3438 19.9617C2.13834 19.9617 1.93677 20.0453 1.79146 20.1906C1.64615 20.3359 1.56256 20.5367 1.56256 20.7429C1.56256 20.9484 1.64607 21.15 1.79146 21.2953C1.93677 21.4405 2.13834 21.5242 2.3438 21.5242C2.54927 21.5242 2.75083 21.4406 2.89607 21.2953C3.04138 21.1492 3.12505 20.9484 3.12505 20.7429C3.12505 20.5375 3.04146 20.3359 2.89607 20.1906ZM4.45872 2.01L2.89622 0.4475C2.59107 0.1425 2.09654 0.1425 1.79131 0.4475L0.228808 2.01C-0.0762694 2.31507 -0.0762694 2.80976 0.228808 3.11492C0.533964 3.41992 1.02849 3.41992 1.33373 3.11492L1.56256 2.88617V17.5928C1.56256 18.0242 1.9124 18.374 2.3438 18.374C2.77521 18.374 3.12505 18.0242 3.12505 17.5928V2.88617L3.35388 3.11499C3.50646 3.26742 3.70638 3.34374 3.9063 3.34374C4.10622 3.34374 4.30614 3.26742 4.45872 3.11492C4.7638 2.80984 4.7638 2.31515 4.45872 2.01ZM39.7712 28.885L38.2087 27.3225C37.9036 27.0175 37.409 27.0175 37.1038 27.3225C36.7987 27.6276 36.7987 28.1223 37.1038 28.4274L37.3326 28.6563H34.5289V17.6927C34.5289 17.2613 34.1791 16.9115 33.7477 16.9115C33.3162 16.9115 32.9664 17.2613 32.9664 17.6927V28.6562H24.5004V23.6562C24.5004 23.2248 24.1506 22.875 23.7192 22.875C23.2877 22.875 22.9379 23.2248 22.9379 23.6562V28.6562H16.4434V16.1191C16.4434 15.6877 16.0935 15.3379 15.6621 15.3379C15.2307 15.3379 14.8809 15.6877 14.8809 16.1191V28.6562H8.60824V23.7734C8.60824 23.342 8.2584 22.9921 7.827 22.9921C7.39559 22.9921 7.04575 23.342 7.04575 23.7734V28.6562H3.12505V24.1597C3.12505 23.7283 2.77521 23.3785 2.3438 23.3785C1.9124 23.3785 1.56256 23.7283 1.56256 24.1597V29.4374C1.56256 29.8688 1.9124 30.2187 2.3438 30.2187H37.3326L37.1037 30.4475C36.7987 30.7526 36.7987 31.2473 37.1037 31.5524C37.2563 31.7049 37.4562 31.7813 37.6562 31.7813C37.8561 31.7813 38.056 31.7049 38.2086 31.5524L39.7711 29.9899C40.0763 29.6848 40.0763 29.1901 39.7712 28.885Z" fill="white"/>
<path d="M33.7474 6.27148C32.192 6.27148 30.9266 7.53687 30.9266 9.09234C30.9266 9.53844 31.0311 9.96055 31.2163 10.3359L25.0987 16.4534C24.6777 16.2158 24.2024 16.0912 23.7189 16.0916C23.2291 16.0916 22.7681 16.2173 22.3663 16.4377L18.2286 12.3001C18.3963 11.9335 18.483 11.5351 18.4827 11.132C18.4827 9.57656 17.2173 8.31109 15.6619 8.31109C14.1064 8.31109 12.8409 9.57656 12.8409 11.132C12.8404 11.5955 12.9549 12.0519 13.1741 12.4602L9.18758 16.4467C8.77112 16.2161 8.30278 16.0953 7.82672 16.0958C6.27125 16.0958 5.00586 17.3612 5.00586 18.9166C5.00586 20.4721 6.27141 21.7375 7.82687 21.7375C9.38234 21.7375 10.6478 20.4721 10.6478 18.9166C10.6483 18.4385 10.5264 17.9682 10.2937 17.5504L14.2638 13.5804C14.6892 13.8248 15.1713 13.9533 15.662 13.9529C16.2117 13.9534 16.7495 13.7923 17.2084 13.4895L21.2568 17.538C21.0212 17.9577 20.8976 18.4311 20.898 18.9124C20.898 20.4679 22.1634 21.7334 23.7189 21.7334C25.2744 21.7334 26.5398 20.4679 26.5398 18.9124C26.5403 18.4417 26.4223 17.9784 26.1966 17.5652L32.2686 11.4933C32.7128 11.7683 33.225 11.9138 33.7474 11.9133C35.3029 11.9133 36.5683 10.6478 36.5683 9.09234C36.5683 7.53687 35.3029 6.27148 33.7474 6.27148ZM7.82695 20.1751C7.13312 20.1751 6.56859 19.6105 6.56859 18.9167C6.56859 18.2229 7.13297 17.6583 7.82687 17.6583C8.1668 17.6583 8.47516 17.7943 8.70187 18.0141C8.7057 18.0181 8.70906 18.0225 8.71297 18.0264C8.71758 18.031 8.72266 18.0349 8.72742 18.0395C8.94852 18.2663 9.08539 18.5756 9.08539 18.9167C9.08539 19.6106 8.52078 20.1751 7.82695 20.1751ZM15.662 12.3903C14.9682 12.3903 14.4036 11.8258 14.4036 11.132C14.4036 10.4381 14.9681 9.87352 15.662 9.87352C16.3559 9.87352 16.9204 10.4381 16.9204 11.132C16.9204 11.8258 16.3559 12.3903 15.662 12.3903ZM23.7191 20.1708C23.0252 20.1708 22.4607 19.6062 22.4607 18.9123C22.4607 18.2185 23.0252 17.654 23.7191 17.654C24.4129 17.654 24.9774 18.2184 24.9774 18.9123C24.9774 19.6062 24.4129 20.1708 23.7191 20.1708ZM33.7476 10.3507C33.0538 10.3507 32.4892 9.78609 32.4892 9.09227C32.4892 8.39844 33.0537 7.83391 33.7476 7.83391C34.4415 7.83391 35.0059 8.39844 35.0059 9.09227C35.0059 9.78609 34.4414 10.3507 33.7476 10.3507Z" fill="white"/>
<path d="M34.2999 13.8852C34.1546 13.7398 33.953 13.6562 33.7476 13.6562C33.5421 13.6562 33.3405 13.7398 33.1952 13.8852C33.05 14.0305 32.9663 14.232 32.9663 14.4375C32.9663 14.643 33.0499 14.8445 33.1952 14.9898C33.3405 15.1351 33.5421 15.2188 33.7476 15.2188C33.953 15.2188 34.1546 15.1352 34.2999 14.9898C34.4451 14.8445 34.5288 14.643 34.5288 14.4375C34.5288 14.232 34.4452 14.0305 34.2999 13.8852Z" fill="white"/>
</svg>
