<svg width="30" height="22" viewBox="0 0 30 22" fill="none" xmlns="http://www.w3.org/2000/svg">
<path d="M27 0.6875H3C1.375 0.6875 0 2.0625 0 3.6875V18.3125C0 19.9375 1.375 21.3125 3 21.3125H27C28.625 21.3125 30 19.9375 30 18.3125V3.6875C30 2.0625 28.625 0.6875 27 0.6875ZM20.3125 10.75L28.625 2.875C28.75 3.125 28.8125 3.375 28.8125 3.6875V18.3125C28.8125 18.5625 28.75 18.8125 28.625 19.0625L20.3125 10.75ZM27 1.875C27.25 1.875 27.5 1.9375 27.75 2.0625L15 14.1875L2.25 2.0625C2.5 1.9375 2.75 1.875 3 1.875H27ZM1.375 19.0625C1.25 18.8125 1.1875 18.5625 1.1875 18.3125V3.6875C1.1875 3.375 1.25 3.125 1.375 2.875L9.625 10.75L1.375 19.0625ZM3 20.125C2.6875 20.125 2.4375 20.0625 2.1875 19.9375L10.5 11.625L14.5625 15.5C14.8125 15.75 15.1875 15.75 15.375 15.5L19.4375 11.625L27.75 19.9375C27.5 20.0625 27.25 20.125 26.9375 20.125H3Z" fill="#C59648"/>
</svg>
