<svg width="75" height="50" viewBox="0 0 75 50" fill="none" xmlns="http://www.w3.org/2000/svg">
<path fill-rule="evenodd" clip-rule="evenodd" d="M54.1781 48.3887H53.5487L52.6146 46.7687V48.3887H51.9807V45.7869H52.6146L53.5464 47.4069V45.7869H54.1781V48.3887ZM51.0086 47.0346C51.0217 46.8293 50.9767 46.6244 50.8787 46.4429C50.8401 46.3789 50.7848 46.3264 50.7186 46.2909C50.6524 46.2554 50.5777 46.2383 50.5024 46.2412C50.1866 46.2412 50.0186 46.4784 50.0007 46.9526V47.1454C49.9889 47.3497 50.033 47.5534 50.1284 47.7349C50.1668 47.8004 50.2225 47.8543 50.2897 47.8906C50.3568 47.9269 50.4327 47.9444 50.5091 47.941C50.5834 47.9437 50.6571 47.9264 50.7222 47.8909C50.7873 47.8554 50.8414 47.803 50.8787 47.7394C50.9772 47.5604 51.0229 47.3577 51.0109 47.1543L51.0086 47.0346ZM51.6537 47.141C51.6573 47.3705 51.6083 47.5978 51.5104 47.8059C51.4228 47.9902 51.2816 48.1445 51.105 48.2491C50.9245 48.3561 50.7172 48.4106 50.5069 48.4064C50.2979 48.4105 50.0918 48.3576 49.9111 48.2535C49.7353 48.1478 49.5945 47.9938 49.5057 47.8103C49.4055 47.6066 49.3535 47.383 49.3534 47.1565V47.0102C49.3502 46.781 49.3984 46.554 49.4945 46.3454C49.5834 46.1613 49.7252 46.0071 49.9021 45.9022C50.0844 45.7983 50.291 45.7437 50.5013 45.7437C50.7116 45.7437 50.9182 45.7983 51.1005 45.9022C51.2751 46.0092 51.4156 46.1628 51.5059 46.3454C51.6071 46.5525 51.6577 46.7802 51.6537 47.0102V47.141ZM48.986 48.3887H48.3544V45.7869H48.986V48.3887ZM48.0453 46.27H47.2546V48.3887H46.6207V46.27H45.8457V45.7869H48.0453V46.27ZM45.7315 47.5089C45.7263 47.6786 45.6753 47.8439 45.5837 47.9876C45.4905 48.1291 45.3584 48.2414 45.2029 48.3111C45.0276 48.3889 44.8372 48.4275 44.6452 48.4242C44.4923 48.432 44.3396 48.406 44.1982 48.3481C44.0568 48.2902 43.9302 48.2019 43.8276 48.0895C43.6136 47.823 43.5075 47.4873 43.5297 47.1476V47.0191C43.5252 46.7905 43.5711 46.5636 43.6641 46.3543C43.7458 46.1717 43.8807 46.0173 44.0516 45.911C44.2272 45.8043 44.4301 45.7497 44.6362 45.7537C44.9154 45.7405 45.1898 45.8296 45.4067 46.0041C45.5047 46.0914 45.5843 46.1971 45.6408 46.315C45.6973 46.4329 45.7296 46.5608 45.736 46.6911H45.1043C45.1083 46.6288 45.0996 46.5663 45.0788 46.5073C45.058 46.4483 45.0256 46.394 44.9834 46.3476C44.8846 46.2719 44.7607 46.2355 44.6362 46.2457C44.568 46.2409 44.4998 46.2547 44.439 46.2855C44.3782 46.3164 44.3271 46.3632 44.2913 46.4207C44.2045 46.5939 44.1644 46.7862 44.1748 46.9792V47.1654C44.1606 47.3689 44.1968 47.5727 44.2801 47.7593C44.3182 47.8197 44.3725 47.8684 44.437 47.9001C44.5014 47.9318 44.5735 47.9452 44.6452 47.9388C44.7654 47.9471 44.8844 47.9108 44.9789 47.8369C45.0203 47.7939 45.0525 47.7431 45.0737 47.6875C45.0949 47.6319 45.1045 47.5727 45.1021 47.5133L45.7315 47.5089ZM43.2094 45.7869V47.4889C43.2144 47.6645 43.1719 47.8382 43.0862 47.992C43.0024 48.1326 42.8775 48.2447 42.7278 48.3134C42.5547 48.3903 42.3665 48.4281 42.1768 48.4242C41.9021 48.4396 41.6317 48.3517 41.4197 48.1782C41.3268 48.0919 41.2536 47.9869 41.2049 47.8703C41.1562 47.7538 41.1332 47.6283 41.1375 47.5022V45.7869H41.7759V47.5155C41.7759 47.7992 41.917 47.941 42.1768 47.941C42.2312 47.9448 42.2858 47.9373 42.3371 47.9189C42.3884 47.9006 42.4353 47.8719 42.4747 47.8347C42.5508 47.7351 42.5867 47.6111 42.5755 47.4867V45.7869H43.2094ZM39.3658 46.9859H39.7667C39.8155 46.9923 39.8651 46.9876 39.9118 46.9721C39.9585 46.9567 40.001 46.9308 40.036 46.8966C40.071 46.8624 40.0977 46.8207 40.1139 46.7747C40.1301 46.7287 40.1355 46.6796 40.1296 46.6313C40.1327 46.5831 40.1263 46.5349 40.1105 46.4892C40.0947 46.4436 40.07 46.4015 40.0377 46.3653C40.0018 46.3316 39.9591 46.3056 39.9124 46.2892C39.8658 46.2728 39.8161 46.2663 39.7667 46.27H39.3658V46.9859ZM39.7107 47.469H39.3658V48.3887H38.7431V45.7869H39.7779C40.0386 45.7716 40.2968 45.8443 40.5103 45.993C40.5978 46.0621 40.6673 46.1508 40.7133 46.2518C40.7593 46.3527 40.7803 46.4631 40.7746 46.5737C40.7788 46.7287 40.7401 46.882 40.6627 47.0169C40.5782 47.1447 40.4574 47.245 40.3155 47.305L40.8642 48.3555V48.3821H40.1923L39.7107 47.469ZM38.4676 46.27H37.6769V48.3887H37.043V46.27H36.2792V45.7869H38.4788L38.4676 46.27ZM35.4437 47.7017C35.4465 47.6594 35.4388 47.6171 35.4212 47.5785C35.4036 47.5398 35.3768 47.5061 35.3429 47.4801C35.2379 47.4075 35.1213 47.3528 34.998 47.3183C34.8598 47.275 34.7251 47.2217 34.5948 47.1587C34.2521 46.9925 34.0819 46.7665 34.0819 46.4761C34.0799 46.3385 34.1249 46.2042 34.2096 46.095C34.304 45.9785 34.4286 45.8896 34.5702 45.8379C34.7372 45.7736 34.9152 45.742 35.0943 45.7448C35.2708 45.741 35.446 45.7758 35.6073 45.8468C35.7496 45.905 35.8712 46.0037 35.9567 46.1304C36.0402 46.2552 36.0839 46.4019 36.0821 46.5515H35.4482C35.4505 46.5061 35.4431 46.4607 35.4266 46.4183C35.41 46.376 35.3845 46.3375 35.3519 46.3055C35.2769 46.2432 35.1808 46.2116 35.0831 46.2169C34.9883 46.2123 34.8947 46.2388 34.8166 46.2922C34.7855 46.3129 34.7603 46.3411 34.743 46.374C34.7258 46.4069 34.7172 46.4435 34.718 46.4806C34.7193 46.5173 34.7298 46.5532 34.7486 46.5849C34.7673 46.6166 34.7938 46.6432 34.8255 46.6623C34.9431 46.7372 35.0715 46.7939 35.2063 46.8307C35.3619 46.8779 35.512 46.9411 35.6543 47.0191C35.7812 47.0794 35.8885 47.1737 35.9641 47.2912C36.0397 47.4086 36.0805 47.5447 36.0821 47.684C36.0862 47.7874 36.0644 47.8903 36.0187 47.9835C35.973 48.0767 35.9048 48.1572 35.82 48.2181C35.6109 48.3592 35.3605 48.4278 35.1078 48.4131C34.9085 48.4157 34.711 48.3772 34.5276 48.3001C34.3696 48.237 34.234 48.129 34.1379 47.9898C34.0495 47.8547 34.0042 47.6964 34.008 47.5355H34.6441C34.6392 47.5921 34.6462 47.6491 34.6647 47.7029C34.6832 47.7567 34.7128 47.8061 34.7516 47.848C34.8531 47.9251 34.9803 47.9615 35.1078 47.9499C35.196 47.9541 35.2832 47.93 35.3564 47.8812C35.3841 47.8601 35.4064 47.8329 35.4216 47.8017C35.4368 47.7705 35.4444 47.7363 35.4437 47.7017ZM33.6854 48.3887H33.0538L32.122 46.7687V48.3887H31.4881V45.7869H32.122L33.0516 47.4069V45.7869H33.6854V48.3887ZM30.516 47.0346C30.5291 46.8293 30.4841 46.6244 30.3861 46.4429C30.3473 46.3791 30.292 46.3267 30.2258 46.2912C30.1596 46.2558 30.085 46.2385 30.0098 46.2412C29.6917 46.2412 29.5237 46.4784 29.5058 46.9526V47.1454C29.4932 47.35 29.5382 47.5541 29.6357 47.7349C29.6739 47.8006 29.7297 47.8546 29.7969 47.8909C29.864 47.9273 29.94 47.9446 30.0165 47.941C30.0908 47.9437 30.1645 47.9264 30.2296 47.8909C30.2947 47.8554 30.3488 47.803 30.3861 47.7394C30.4845 47.5604 30.5303 47.3577 30.5183 47.1543L30.516 47.0346ZM31.1611 47.141C31.1646 47.3705 31.1156 47.5978 31.0177 47.8059C30.9295 47.9898 30.7885 48.1439 30.6123 48.2491C30.4319 48.3561 30.2246 48.4106 30.0143 48.4064C29.8053 48.4105 29.5991 48.3576 29.4185 48.2535C29.2421 48.1479 29.1005 47.9939 29.0108 47.8103C28.9114 47.6064 28.8601 47.3829 28.8607 47.1565V47.0102C28.8576 46.781 28.9057 46.554 29.0019 46.3454C29.09 46.1614 29.231 46.0072 29.4073 45.9022C29.5895 45.7983 29.7961 45.7437 30.0064 45.7437C30.2167 45.7437 30.4234 45.7983 30.6056 45.9022C30.7814 46.0085 30.9228 46.1623 31.0133 46.3454C31.1135 46.5529 31.164 46.7803 31.1611 47.0102V47.141ZM28.6345 47.5089C28.6293 47.6786 28.5783 47.8439 28.4867 47.9876C28.393 48.1287 28.2611 48.2409 28.1059 48.3111C27.9307 48.3889 27.7402 48.4275 27.5482 48.4242C27.3953 48.4321 27.2426 48.4062 27.1012 48.3483C26.9597 48.2904 26.8331 48.202 26.7306 48.0895C26.5167 47.823 26.4105 47.4873 26.4327 47.1476V47.0191C26.4282 46.7905 26.4741 46.5636 26.5671 46.3543C26.6488 46.1717 26.7838 46.0173 26.9546 45.911C27.1303 45.8043 27.3331 45.7497 27.5392 45.7537C27.8179 45.7395 28.0919 45.8288 28.3075 46.0041C28.4062 46.091 28.4864 46.1965 28.5433 46.3145C28.6002 46.4325 28.6328 46.5605 28.639 46.6911H28.0074C28.0113 46.6288 28.0026 46.5663 27.9818 46.5073C27.9611 46.4483 27.9286 46.394 27.8864 46.3476C27.7876 46.2719 27.6638 46.2355 27.5392 46.2457C27.4707 46.241 27.4023 46.2548 27.3411 46.2856C27.28 46.3164 27.2284 46.3632 27.192 46.4207C27.1054 46.5939 27.066 46.7864 27.0778 46.9792V47.1654C27.0625 47.3689 27.0987 47.573 27.1831 47.7593C27.2211 47.8198 27.2753 47.8687 27.3398 47.9004C27.4043 47.9321 27.4765 47.9454 27.5482 47.9388C27.6677 47.9472 27.786 47.9108 27.8797 47.8369C27.922 47.7945 27.9548 47.7438 27.976 47.688C27.9972 47.6323 28.0064 47.5728 28.0029 47.5133L28.6345 47.5089ZM24.1144 47.4202L23.8546 47.7017V48.3887H23.2207V45.7869H23.8546V46.9349L24.0786 46.6025L24.6453 45.7869H25.4293L24.5333 46.9371L25.4293 48.3887H24.6789L24.1144 47.4202ZM22.8198 48.3887H22.1882V47.3028H21.2541V48.3887H20.6202V45.7869H21.2541V46.8174H22.1882V45.7869H22.8198V48.3887Z" fill="white"/>
<path d="M55.1681 47.0612H75" stroke="#9B9D9F" stroke-width="0.5"/>
<path d="M0 47.0612H19.8319" stroke="#9B9D9F" stroke-width="0.5"/>
<path d="M33.6019 1.07048L41.5992 6.83676M47.4271 12.9811L56.5446 18.8114M24.9183 11.0461V26.4229M54.8481 16.46V36.815M23.3383 23.905L24.9183 25.0262M23.7203 13.5128L36.0885 1M43.5807 13.09L52.9831 19.3624V39.6277" stroke="#565757" stroke-width="0.5"/>
<path fill-rule="evenodd" clip-rule="evenodd" d="M33.6019 1.07048L41.5992 6.83676ZM47.4271 12.9811L56.5446 18.8114ZM24.9183 11.0461V26.4229ZM54.8481 16.46V36.815ZM23.3383 23.905L24.9183 25.0262ZM23.7203 13.5128L36.0885 1ZM43.5807 13.09L52.9831 19.3624V39.6277" fill="#6E6F70"/>
<path fill-rule="evenodd" clip-rule="evenodd" d="M18.132 27.1534L23.3124 23.9051V39.3907H18.132V27.1534ZM32.2291 6.73437H32.2939V24.0332H38.3873V17.6262L42.9202 13.1414V10.4761C42.9202 10.2198 35.7971 5.26077 35.5187 4.98527C35.577 4.83791 35.577 7.10598 35.577 7.10598L34.2819 5.78614L35.7907 4.22925L43.6454 9.99553V39.3715H38.465V28.2106H32.3716V39.3907H27.1912V11.8407L32.2291 6.73437Z" fill="#C59648"/>
</svg>
