<svg width="182" height="117" viewBox="0 0 182 117" fill="none" xmlns="http://www.w3.org/2000/svg">
<path fill-rule="evenodd" clip-rule="evenodd" d="M131.472 116.571H129.945L127.678 112.598V116.571H126.14V110.19H127.678L129.939 114.163V110.19H131.472V116.571ZM123.781 113.25C123.813 112.747 123.704 112.244 123.466 111.799C123.372 111.642 123.238 111.513 123.077 111.426C122.917 111.339 122.735 111.297 122.553 111.304C121.786 111.304 121.379 111.886 121.335 113.049V113.522C121.306 114.023 121.413 114.523 121.645 114.968C121.738 115.128 121.873 115.261 122.036 115.35C122.199 115.439 122.383 115.482 122.569 115.473C122.749 115.48 122.928 115.437 123.086 115.35C123.244 115.263 123.375 115.135 123.466 114.979C123.705 114.54 123.816 114.043 123.787 113.544L123.781 113.25ZM125.346 113.511C125.355 114.074 125.236 114.631 124.999 115.142C124.786 115.594 124.444 115.972 124.015 116.229C123.577 116.491 123.074 116.625 122.564 116.615C122.056 116.625 121.556 116.495 121.118 116.24C120.691 115.981 120.349 115.603 120.134 115.153C119.891 114.653 119.765 114.105 119.764 113.549V113.19C119.757 112.628 119.874 112.071 120.107 111.56C120.323 111.108 120.667 110.73 121.096 110.473C121.538 110.218 122.04 110.084 122.55 110.084C123.06 110.084 123.562 110.218 124.004 110.473C124.428 110.735 124.769 111.112 124.988 111.56C125.233 112.068 125.356 112.626 125.346 113.19V113.511ZM118.873 116.571H117.34V110.19H118.873V116.571ZM116.59 111.375H114.671V116.571H113.133V111.375H111.252V110.19H116.59V111.375ZM110.975 114.413C110.963 114.83 110.839 115.235 110.616 115.588C110.39 115.935 110.07 116.21 109.692 116.381C109.267 116.572 108.805 116.667 108.339 116.658C107.968 116.677 107.598 116.614 107.254 116.472C106.911 116.33 106.604 116.113 106.355 115.838C105.836 115.184 105.578 114.361 105.632 113.527V113.212C105.621 112.651 105.733 112.095 105.958 111.582C106.157 111.134 106.484 110.755 106.899 110.495C107.325 110.233 107.817 110.099 108.317 110.109C108.995 110.076 109.661 110.295 110.187 110.723C110.425 110.937 110.618 111.196 110.755 111.485C110.892 111.775 110.971 112.088 110.986 112.408H109.453C109.463 112.255 109.442 112.102 109.391 111.957C109.341 111.812 109.262 111.679 109.16 111.565C108.92 111.379 108.62 111.29 108.317 111.315C108.152 111.304 107.986 111.337 107.839 111.413C107.691 111.489 107.567 111.603 107.48 111.745C107.27 112.169 107.172 112.641 107.198 113.114V113.571C107.163 114.07 107.251 114.57 107.453 115.028C107.546 115.176 107.678 115.295 107.834 115.373C107.99 115.451 108.165 115.483 108.339 115.468C108.631 115.488 108.919 115.399 109.149 115.218C109.249 115.112 109.328 114.988 109.379 114.851C109.43 114.715 109.454 114.57 109.448 114.424L110.975 114.413ZM104.855 110.19V114.365C104.867 114.795 104.764 115.221 104.556 115.598C104.353 115.943 104.049 116.218 103.686 116.387C103.266 116.575 102.81 116.668 102.349 116.658C101.683 116.696 101.026 116.481 100.512 116.055C100.286 115.843 100.109 115.586 99.9906 115.3C99.8725 115.014 99.8168 114.706 99.8271 114.397V110.19H101.376V114.43C101.376 115.125 101.719 115.473 102.349 115.473C102.481 115.483 102.614 115.464 102.738 115.419C102.863 115.374 102.976 115.304 103.072 115.212C103.257 114.968 103.344 114.664 103.317 114.359V110.19H104.855ZM95.5277 113.131H96.5007C96.6191 113.146 96.7395 113.135 96.8528 113.097C96.9661 113.059 97.0692 112.996 97.1541 112.912C97.2391 112.828 97.3038 112.726 97.3431 112.613C97.3825 112.5 97.3955 112.38 97.3812 112.261C97.3889 112.143 97.3732 112.025 97.3349 111.913C97.2967 111.801 97.2367 111.697 97.1583 111.609C97.0712 111.526 96.9676 111.462 96.8543 111.422C96.741 111.382 96.6205 111.366 96.5007 111.375H95.5277V113.131ZM96.3648 114.316H95.5277V116.571H94.0167V110.19H96.5278C97.1604 110.153 97.7871 110.331 98.3052 110.696C98.5174 110.865 98.6862 111.083 98.7977 111.33C98.9093 111.578 98.9603 111.848 98.9466 112.12C98.9568 112.5 98.8628 112.876 98.6748 113.207C98.4699 113.52 98.1768 113.766 97.8323 113.913L99.164 116.49V116.555H97.5334L96.3648 114.316ZM93.3481 111.375H91.4294V116.571H89.8912V111.375H88.0377V110.19H93.3753L93.3481 111.375ZM86.0103 114.886C86.017 114.783 85.9982 114.679 85.9556 114.584C85.913 114.489 85.8478 114.407 85.7657 114.343C85.5107 114.165 85.2278 114.031 84.9286 113.946C84.5933 113.84 84.2663 113.709 83.9502 113.555C83.1186 113.147 82.7055 112.593 82.7055 111.881C82.7006 111.543 82.8098 111.214 83.0153 110.946C83.2444 110.66 83.5469 110.442 83.8904 110.315C84.2956 110.157 84.7276 110.08 85.1623 110.087C85.5906 110.077 86.0156 110.163 86.4071 110.337C86.7524 110.48 87.0475 110.722 87.255 111.033C87.4576 111.339 87.5636 111.698 87.5594 112.065H86.0211C86.0267 111.954 86.0088 111.843 85.9686 111.739C85.9283 111.635 85.8666 111.541 85.7874 111.462C85.6055 111.309 85.3723 111.232 85.1352 111.245C84.9051 111.234 84.6778 111.298 84.4883 111.429C84.413 111.48 84.3517 111.549 84.3099 111.63C84.2681 111.711 84.2472 111.801 84.2492 111.891C84.2523 111.982 84.2778 112.069 84.3233 112.147C84.3689 112.225 84.433 112.29 84.5101 112.337C84.7955 112.521 85.107 112.66 85.4341 112.75C85.8116 112.866 86.1759 113.021 86.5212 113.212C86.8291 113.36 87.0894 113.591 87.2729 113.879C87.4563 114.168 87.5556 114.501 87.5594 114.843C87.5693 115.097 87.5165 115.349 87.4056 115.578C87.2946 115.806 87.129 116.004 86.9234 116.153C86.416 116.499 85.8082 116.667 85.195 116.631C84.7115 116.638 84.2321 116.543 83.7872 116.354C83.4037 116.199 83.0746 115.934 82.8414 115.593C82.6269 115.262 82.5171 114.873 82.5262 114.479H84.0698C84.0578 114.618 84.0748 114.757 84.1197 114.889C84.1646 115.021 84.2365 115.142 84.3307 115.245C84.5771 115.434 84.8857 115.524 85.195 115.495C85.409 115.505 85.6206 115.446 85.7983 115.327C85.8655 115.275 85.9197 115.208 85.9565 115.132C85.9934 115.055 86.0118 114.971 86.0103 114.886ZM81.7435 116.571H80.2107L77.9495 112.598V116.571H76.4113V110.19H77.9495L80.2052 114.163V110.19H81.7435V116.571ZM74.0523 113.25C74.084 112.747 73.9748 112.244 73.7371 111.799C73.643 111.642 73.5086 111.514 73.348 111.427C73.1874 111.34 73.0064 111.298 72.8239 111.304C72.0521 111.304 71.6444 111.886 71.6009 113.049V113.522C71.5703 114.024 71.6794 114.524 71.9162 114.968C72.0089 115.129 72.1442 115.261 72.3072 115.35C72.4702 115.44 72.6546 115.482 72.8402 115.473C73.0205 115.48 73.1992 115.437 73.3572 115.35C73.5152 115.263 73.6465 115.135 73.7371 114.979C73.9759 114.54 74.087 114.043 74.0578 113.544L74.0523 113.25ZM75.6177 113.511C75.6263 114.074 75.5074 114.631 75.2699 115.142C75.0557 115.593 74.7136 115.971 74.286 116.229C73.8481 116.491 73.3452 116.625 72.8348 116.615C72.3276 116.625 71.8274 116.495 71.389 116.24C70.961 115.981 70.6174 115.603 70.3997 115.153C70.1584 114.653 70.0339 114.104 70.0355 113.549V113.19C70.0278 112.628 70.1447 112.071 70.378 111.56C70.5918 111.109 70.9341 110.73 71.3618 110.473C71.804 110.218 72.3054 110.084 72.8158 110.084C73.3261 110.084 73.8275 110.218 74.2697 110.473C74.6963 110.734 75.0395 111.111 75.259 111.56C75.5021 112.069 75.6249 112.627 75.6177 113.19V113.511ZM69.4866 114.413C69.474 114.83 69.3501 115.235 69.1278 115.588C68.9006 115.934 68.5803 116.209 68.2038 116.381C67.7785 116.572 67.3164 116.667 66.8504 116.658C66.4794 116.678 66.1088 116.614 65.7656 116.472C65.4224 116.33 65.1152 116.113 64.8664 115.838C64.3472 115.184 64.0896 114.361 64.1435 113.527V113.212C64.1326 112.651 64.2439 112.095 64.4697 111.582C64.668 111.134 64.9954 110.755 65.41 110.495C65.8362 110.233 66.3286 110.099 66.8286 110.109C67.5049 110.074 68.1698 110.293 68.693 110.723C68.9325 110.936 69.127 111.195 69.2652 111.484C69.4033 111.773 69.4823 112.088 69.4974 112.408H67.9646C67.9742 112.255 67.9531 112.102 67.9027 111.957C67.8523 111.812 67.7736 111.679 67.6711 111.565C67.4315 111.379 67.1308 111.29 66.8286 111.315C66.6625 111.304 66.4963 111.338 66.3479 111.413C66.1995 111.489 66.0744 111.603 65.9861 111.745C65.7759 112.169 65.6804 112.641 65.7089 113.114V113.571C65.6719 114.07 65.7597 114.571 65.9644 115.028C66.0566 115.176 66.1883 115.296 66.3448 115.374C66.5013 115.451 66.6764 115.484 66.8504 115.468C67.1404 115.489 67.4276 115.399 67.6548 115.218C67.7574 115.114 67.837 114.99 67.8885 114.853C67.94 114.716 67.9622 114.57 67.9538 114.424L69.4866 114.413ZM58.5179 114.196L57.8873 114.886V116.571H56.3491V110.19H57.8873V113.006L58.4309 112.19L59.806 110.19H61.7084L59.5343 113.011L61.7084 116.571H59.8876L58.5179 114.196ZM55.3762 116.571H53.8434V113.908H51.5768V116.571H50.0386V110.19H51.5768V112.718H53.8434V110.19H55.3762V116.571Z" fill="white"/>
<path d="M133.875 113.315H182" stroke="#9B9D9F" stroke-width="0.5"/>
<path d="M0 113.315H48.1253" stroke="#9B9D9F" stroke-width="0.5"/>
<path d="M81.5405 0.517824L100.947 14.6603M115.09 29.7299L137.215 44.0296M60.4682 24.9843V62.6977M133.098 38.2626V88.1856M56.634 56.5221L60.4682 59.2721M57.5611 31.0342L87.5747 0.344971M105.756 29.9971L128.572 45.381V95.084" stroke="#565757" stroke-width="0.5"/>
<path fill-rule="evenodd" clip-rule="evenodd" d="M81.5405 0.517824L100.947 14.6603L81.5405 0.517824ZM115.09 29.7299L137.215 44.0296L115.09 29.7299ZM60.4682 24.9843V62.6977V24.9843ZM133.098 38.2626V88.1856V38.2626ZM56.634 56.5221L60.4682 59.2721L56.634 56.5221ZM57.5611 31.0342L87.5747 0.344971L57.5611 31.0342ZM105.756 29.9971L128.572 45.381V95.084" fill="#6E6F70"/>
<path fill-rule="evenodd" clip-rule="evenodd" d="M44 64.4891L56.5711 56.5221V94.5026H44V64.4891ZM78.2091 14.4089H78.3663V56.8364H93.153V41.1225L104.153 30.1228V23.5858C104.153 22.9573 86.8675 10.7947 86.1918 10.119C86.3332 9.75759 86.3332 15.3203 86.3332 15.3203L83.1904 12.0832L86.8518 8.26477L105.913 22.4073V94.4554H93.3416V67.0818H78.5548V94.5026H65.9837V26.9329L78.2091 14.4089Z" fill="#C59648"/>
</svg>
