<svg width="13" height="13" viewBox="0 0 13 13" fill="none" xmlns="http://www.w3.org/2000/svg">
<path d="M6.36465 3.60547C8.0873 3.60547 9.50918 5.02734 9.50918 6.75C9.50918 8.5 8.0873 9.89453 6.36465 9.89453C4.61465 9.89453 3.22012 8.5 3.22012 6.75C3.22012 5.02734 4.61465 3.60547 6.36465 3.60547ZM6.36465 8.80078C7.48574 8.80078 8.38809 7.89844 8.38809 6.75C8.38809 5.62891 7.48574 4.72656 6.36465 4.72656C5.21621 4.72656 4.31387 5.62891 4.31387 6.75C4.31387 7.89844 5.24355 8.80078 6.36465 8.80078ZM10.3568 3.49609C10.3568 3.90625 10.0287 4.23438 9.61855 4.23438C9.2084 4.23438 8.88027 3.90625 8.88027 3.49609C8.88027 3.08594 9.2084 2.75781 9.61855 2.75781C10.0287 2.75781 10.3568 3.08594 10.3568 3.49609ZM12.435 4.23438C12.4896 5.24609 12.4896 8.28125 12.435 9.29297C12.3803 10.2773 12.1615 11.125 11.4506 11.8633C10.7396 12.5742 9.86465 12.793 8.88027 12.8477C7.86855 12.9023 4.8334 12.9023 3.82168 12.8477C2.8373 12.793 1.98965 12.5742 1.25137 11.8633C0.54043 11.125 0.32168 10.2773 0.266992 9.29297C0.212305 8.28125 0.212305 5.24609 0.266992 4.23438C0.32168 3.25 0.54043 2.375 1.25137 1.66406C1.98965 0.953125 2.8373 0.734375 3.82168 0.679688C4.8334 0.625 7.86855 0.625 8.88027 0.679688C9.86465 0.734375 10.7396 0.953125 11.4506 1.66406C12.1615 2.375 12.3803 3.25 12.435 4.23438ZM11.1225 10.3594C11.4506 9.56641 11.3686 7.65234 11.3686 6.75C11.3686 5.875 11.4506 3.96094 11.1225 3.14062C10.9037 2.62109 10.4936 2.18359 9.97402 1.99219C9.15371 1.66406 7.23965 1.74609 6.36465 1.74609C5.4623 1.74609 3.54824 1.66406 2.75527 1.99219C2.2084 2.21094 1.79824 2.62109 1.57949 3.14062C1.25137 3.96094 1.3334 5.875 1.3334 6.75C1.3334 7.65234 1.25137 9.56641 1.57949 10.3594C1.79824 10.9062 2.2084 11.3164 2.75527 11.5352C3.54824 11.8633 5.4623 11.7812 6.36465 11.7812C7.23965 11.7812 9.15371 11.8633 9.97402 11.5352C10.4936 11.3164 10.9311 10.9062 11.1225 10.3594Z" fill="white"/>
</svg>
