<svg width="20" height="20" viewBox="0 0 20 20" fill="none" xmlns="http://www.w3.org/2000/svg">
<g clip-path="url(#clip0_195_2)">
<path d="M2.28005 8.6804C2.01497 8.6804 1.80005 8.46548 1.80005 8.2004V7.9168C1.80005 7.65172 2.01497 7.4368 2.28005 7.4368C2.54513 7.4368 2.76005 7.65172 2.76005 7.9168V8.2004C2.76005 8.46548 2.54513 8.6804 2.28005 8.6804Z" fill="black"/>
<path d="M18.0416 3.37044L14.4431 0.12364C14.3548 0.0440656 14.2403 1.39997e-05 14.1215 0L4.99429 0C4.72921 0 4.51429 0.21492 4.51429 0.48V2.68888H2.28005C2.01497 2.68888 1.80005 2.9038 1.80005 3.16888V6.49684C1.80005 6.76192 2.01497 6.97684 2.28005 6.97684C2.54513 6.97684 2.76005 6.76192 2.76005 6.49684V3.64888H4.51429V16.8312C4.51429 17.0962 4.72921 17.3112 4.99429 17.3112H14.5258V19.04H2.76005V9.56876C2.76005 9.30364 2.54513 9.08876 2.28005 9.08876C2.01493 9.08876 1.80005 9.30364 1.80005 9.56876V19.52C1.80005 19.7851 2.01493 20 2.28005 20H15.0058C15.2709 20 15.4858 19.7851 15.4858 19.52V17.3111H17.72C17.9851 17.3111 18.2 17.0962 18.2 16.8311V3.7268C18.2 3.59092 18.1425 3.46144 18.0416 3.37044ZM14.6015 1.5596L16.4715 3.2468H14.6015V1.5596ZM5.47429 16.3511V0.96H13.6415V3.7268C13.6415 3.99188 13.8564 4.2068 14.1215 4.2068H17.24V16.3511H5.47429Z" fill="black"/>
<path d="M15.0767 12.7675H7.63753C7.37245 12.7675 7.15753 12.5525 7.15753 12.2875C7.15753 12.0224 7.37245 11.8075 7.63753 11.8075H15.0767C15.3418 11.8075 15.5567 12.0224 15.5567 12.2875C15.5567 12.5525 15.3418 12.7675 15.0767 12.7675ZM9.15113 6.82363C8.90749 6.60679 8.54036 6.49683 8.05996 6.49683C7.73688 6.49683 7.4288 6.52067 7.14428 6.56767L7.0498 6.58331V10.3341H7.74352V8.91791C7.83196 8.92759 7.9234 8.92935 8.0066 8.92935C8.51132 8.92935 8.93344 8.77691 9.19384 8.50155C9.40052 8.29095 9.50529 8.00679 9.50529 7.65699C9.50533 7.31543 9.37897 7.01895 9.15113 6.82363ZM8.81204 7.67867C8.81204 8.24775 8.314 8.33267 8.01712 8.33267C7.9078 8.33267 7.81741 8.32723 7.74357 8.31611V7.10595C7.81897 7.09579 7.92912 7.08787 8.07092 7.08787C8.409 7.08787 8.81204 7.19039 8.81204 7.67867ZM12.5595 6.97415C12.2123 6.65295 11.7074 6.49687 11.0158 6.49687C10.6821 6.49687 10.3421 6.52239 10.0052 6.57267L9.90897 6.58703V10.3111L10.0092 10.3225C10.264 10.3515 10.554 10.3661 10.871 10.3661C11.6078 10.3661 12.189 10.1762 12.5511 9.81747C12.914 9.46359 13.1058 8.95395 13.1058 8.34375C13.1058 7.76391 12.9217 7.30287 12.5595 6.97415ZM12.3906 8.35975C12.3906 9.26883 11.8834 9.76943 10.9624 9.76943C10.8576 9.76943 10.7176 9.76791 10.6027 9.75699V7.11715C10.7034 7.10155 10.8464 7.08787 11.0377 7.08787C11.4909 7.08787 11.8374 7.20427 12.0677 7.43391C12.2846 7.65035 12.3933 7.96159 12.3906 8.35975ZM15.6644 7.13599V6.52327H13.4884V10.3341H14.1822V8.71099H15.552V8.10391H14.1822V7.13599H15.6644Z" fill="black"/>
</g>
<defs>
<clipPath id="clip0_195_2">
<rect width="20" height="20" fill="white"/>
</clipPath>
</defs>
</svg>
