<svg width="30" height="30" viewBox="0 0 30 30" fill="none" xmlns="http://www.w3.org/2000/svg">
<path d="M19.375 18.6875C18.6875 18 17.5 18 16.8125 18.6875L15.0625 20.4375C14.6875 20.8125 12.9375 20.3125 11.3125 18.6875C10.1875 17.5625 8.93749 15.5 9.56249 14.9375L11.3125 13.1875C12 12.5 12 11.375 11.3125 10.625L5.31249 4.5625C4.62499 3.875 3.49999 3.875 2.74999 4.5625C2.43749 4.875 1.18749 6.1875 1.24999 6.125C-1.75001 9.125 0.937494 16.4375 7.24999 22.75C11.8125 27.375 16.875 30 20.5 30C23.5 30 25.5 27.1875 25.4375 27.25C26.125 26.5625 26.125 25.4375 25.4375 24.6875L19.375 18.6875ZM4.37499 5.5L10.375 11.5C10.5625 11.6875 10.5625 12.0625 10.375 12.25L9.56249 13.0625L2.81249 6.25L3.62499 5.4375C3.87499 5.25 4.18749 5.25 4.37499 5.5ZM8.12499 21.875C2.56249 16.3125 -0.187505 9.6875 1.99999 7.1875L8.74999 13.9375C8.74999 14 7.68749 14.6875 8.43749 16.625C8.81249 17.5625 9.49999 18.625 10.4375 19.5625C14.1875 23.3125 16 21.25 16.0625 21.25L22.8125 28C20.3125 30.1875 13.6875 27.4375 8.12499 21.875ZM24.5 26.375L23.75 27.1875L16.9375 20.375L17.75 19.5625C17.9375 19.375 18.3125 19.375 18.5 19.5625L24.5 25.5625C24.75 25.8125 24.75 26.125 24.5 26.375ZM16.1875 0C15.8125 0 15.5625 0.25 15.5625 0.625C15.5625 1 15.8125 1.25 16.1875 1.25C23.125 1.25 28.75 6.875 28.75 13.8125C28.75 14.1875 29 14.4375 29.375 14.4375C29.75 14.4375 30 14.1875 30 13.8125C30 6.1875 23.8125 0 16.1875 0Z" fill="#C59648"/>
<path d="M16.1875 5.75C20.625 5.75 24.25 9.375 24.25 13.8125C24.25 14.1875 24.5 14.4375 24.875 14.4375C25.25 14.4375 25.5 14.1875 25.5 13.8125C25.5 8.6875 21.3125 4.5 16.1875 4.5C15.8125 4.5 15.5625 4.75 15.5625 5.125C15.5625 5.5 15.875 5.75 16.1875 5.75ZM16.1875 10.25C18.125 10.25 19.75 11.875 19.75 13.8125C19.75 14.1875 20 14.4375 20.375 14.4375C20.75 14.4375 21 14.1875 21 13.8125C21 11.1875 18.875 9 16.1875 9C15.8125 9 15.5625 9.25 15.5625 9.625C15.5625 10 15.875 10.25 16.1875 10.25Z" fill="#C59648"/>
</svg>
