<svg width="49" height="30" viewBox="0 0 49 30" fill="none" xmlns="http://www.w3.org/2000/svg">
<circle cx="15" cy="15" r="14.5" stroke="white"/>
<path fill-rule="evenodd" clip-rule="evenodd" d="M12.4874 15.3857C12.1753 15.0732 12 14.6495 12 14.2078C12 13.7661 12.1753 13.3425 12.4874 13.03L19.1544 6.36301C19.4704 6.0686 19.8883 5.90831 20.3201 5.91593C20.7519 5.92355 21.1639 6.09847 21.4693 6.40385C21.7746 6.70923 21.9496 7.12122 21.9572 7.55302C21.9648 7.98482 21.8045 8.40272 21.5101 8.71868L17.6877 12.5411L46.8214 12.9047C47.2635 12.9047 47.6874 13.0803 48 13.3929C48.3126 13.7054 48.4882 14.1294 48.4882 14.5714C48.4882 15.0135 48.3126 15.4374 48 15.75C47.6874 16.0626 47.2635 16.2382 46.8214 16.2382L17.6877 15.8746L21.5101 19.697C21.8045 20.013 21.9648 20.4309 21.9572 20.8627C21.9496 21.2945 21.7746 21.7064 21.4693 22.0118C21.1639 22.3172 20.7519 22.4921 20.3201 22.4997C19.8883 22.5074 19.4704 22.3471 19.1544 22.0527L12.4874 15.3857Z" fill="white"/>
</svg>
