<svg width="49" height="30" viewBox="0 0 49 30" fill="none" xmlns="http://www.w3.org/2000/svg">
<circle cx="15" cy="15" r="14.5" transform="matrix(-1 0 0 1 48.9763 0)" stroke="white"/>
<path fill-rule="evenodd" clip-rule="evenodd" d="M36.4889 15.3857C36.801 15.0732 36.9763 14.6495 36.9763 14.2078C36.9763 13.7661 36.801 13.3425 36.4889 13.03L29.8219 6.36301C29.5059 6.0686 29.088 5.90831 28.6562 5.91593C28.2244 5.92355 27.8124 6.09847 27.5071 6.40385C27.2017 6.70923 27.0267 7.12122 27.0191 7.55302C27.0115 7.98482 27.1718 8.40272 27.4662 8.71868L31.2886 12.5411L2.15489 12.9047C1.71284 12.9047 1.28889 13.0803 0.976318 13.3929C0.663742 13.7054 0.48814 14.1294 0.48814 14.5714C0.48814 15.0135 0.663742 15.4374 0.976318 15.75C1.28889 16.0626 1.71284 16.2382 2.15489 16.2382L31.2886 15.8746L27.4662 19.697C27.1718 20.013 27.0115 20.4309 27.0191 20.8627C27.0267 21.2945 27.2017 21.7064 27.5071 22.0118C27.8124 22.3172 28.2244 22.4921 28.6562 22.4997C29.088 22.5074 29.5059 22.3471 29.8219 22.0527L36.4889 15.3857Z" fill="white"/>
</svg>
