<svg width="15" height="12" viewBox="0 0 15 12" fill="none" xmlns="http://www.w3.org/2000/svg">
<path d="M12.9214 2.90625C12.9214 3.04297 12.9214 3.15234 12.9214 3.28906C12.9214 7.08984 10.0503 11.4375 4.77292 11.4375C3.1323 11.4375 1.62839 10.9727 0.370581 10.1523C0.589331 10.1797 0.808081 10.207 1.05417 10.207C2.39402 10.207 3.62449 9.74219 4.60886 8.97656C3.35105 8.94922 2.28464 8.12891 1.92917 6.98047C2.12058 7.00781 2.28464 7.03516 2.47605 7.03516C2.72214 7.03516 2.99558 6.98047 3.21433 6.92578C1.90183 6.65234 0.917456 5.50391 0.917456 4.10938V4.08203C1.30027 4.30078 1.76511 4.41016 2.22996 4.4375C1.43699 3.91797 0.9448 3.04297 0.9448 2.05859C0.9448 1.51172 1.08152 1.01953 1.32761 0.609375C2.74949 2.33203 4.8823 3.48047 7.26121 3.61719C7.20652 3.39844 7.17917 3.17969 7.17917 2.96094C7.17917 1.375 8.46433 0.0898438 10.0503 0.0898438C10.8706 0.0898438 11.6089 0.417969 12.1557 0.992188C12.7846 0.855469 13.4135 0.609375 13.9604 0.28125C13.7417 0.964844 13.3042 1.51172 12.7026 1.86719C13.2768 1.8125 13.851 1.64844 14.3432 1.42969C13.9604 2.00391 13.4682 2.49609 12.9214 2.90625Z" fill="white"/>
</svg>
