<svg width="16" height="11" viewBox="0 0 16 11" fill="none" xmlns="http://www.w3.org/2000/svg">
<path d="M15.5232 2.16797C15.8514 3.31641 15.8514 5.77734 15.8514 5.77734C15.8514 5.77734 15.8514 8.21094 15.5232 9.38672C15.3592 10.043 14.8396 10.5352 14.2107 10.6992C13.035 11 8.38652 11 8.38652 11C8.38652 11 3.71074 11 2.53496 10.6992C1.90605 10.5352 1.38652 10.043 1.22246 9.38672C0.894336 8.21094 0.894336 5.77734 0.894336 5.77734C0.894336 5.77734 0.894336 3.31641 1.22246 2.16797C1.38652 1.51172 1.90605 0.992188 2.53496 0.828125C3.71074 0.5 8.38652 0.5 8.38652 0.5C8.38652 0.5 13.035 0.5 14.2107 0.828125C14.8396 0.992188 15.3592 1.51172 15.5232 2.16797ZM6.85527 7.99219L10.7381 5.77734L6.85527 3.5625V7.99219Z" fill="white"/>
</svg>
