<svg width="150" height="100" viewBox="0 0 150 100" fill="none" xmlns="http://www.w3.org/2000/svg">
<rect width="150" height="100" fill="white"/>
<path d="M13.6653 42.2838H16.3592C16.3222 43.3071 16.1185 44.1712 15.7482 44.8762C15.3779 45.575 14.8502 46.1053 14.1652 46.4672C13.4863 46.829 12.6655 47.01 11.7027 47.01C10.956 47.01 10.2925 46.8852 9.71242 46.6357C9.13228 46.3798 8.63856 46.0055 8.23123 45.5126C7.82391 45.0197 7.51533 44.4114 7.30549 43.6877C7.10183 42.9577 7 42.1185 7 41.1702V38.8586C7 37.9102 7.108 37.0711 7.32401 36.3411C7.54618 35.6111 7.86094 34.9997 8.26826 34.5068C8.68175 34.0076 9.17856 33.6333 9.75869 33.3837C10.345 33.1279 11.0054 33 11.7398 33C12.7211 33 13.5419 33.1872 14.2022 33.5615C14.8626 33.9359 15.3718 34.4818 15.7297 35.1993C16.0938 35.9106 16.3129 36.7809 16.387 37.8104H13.6838C13.6653 37.1615 13.5912 36.653 13.4616 36.2849C13.3382 35.9106 13.1407 35.6485 12.8692 35.4988C12.5976 35.3428 12.2211 35.2648 11.7398 35.2648C11.3818 35.2648 11.0732 35.3303 10.814 35.4614C10.5548 35.5861 10.3419 35.7889 10.1753 36.0697C10.0086 36.3504 9.88521 36.7185 9.80499 37.174C9.73093 37.6294 9.69388 38.1847 9.69388 38.8399V41.1702C9.69388 41.8128 9.72783 42.3618 9.79572 42.8173C9.86361 43.2665 9.97161 43.6346 10.1197 43.9216C10.2679 44.2086 10.4684 44.4176 10.7215 44.5487C10.9807 44.6797 11.3078 44.7452 11.7027 44.7452C12.1594 44.7452 12.5267 44.6766 12.8044 44.5393C13.0883 44.402 13.2981 44.1556 13.4339 43.8C13.5696 43.4443 13.6468 42.939 13.6653 42.2838ZM27.5236 38.9522V41.2263C27.5236 42.1872 27.4062 43.0294 27.1718 43.7532C26.9435 44.4707 26.6164 45.0728 26.1905 45.5594C25.7708 46.0398 25.2617 46.4017 24.6631 46.645C24.0706 46.8883 23.4133 47.01 22.6912 47.01C21.9692 47.01 21.3088 46.8883 20.7102 46.645C20.1177 46.4017 19.6054 46.0398 19.1734 45.5594C18.7476 45.0728 18.4174 44.4707 18.1829 43.7532C17.9484 43.0294 17.8311 42.1872 17.8311 41.2263V38.9522C17.8311 37.9664 17.9453 37.1054 18.1736 36.3691C18.402 35.6267 18.7322 35.009 19.1642 34.5161C19.5962 34.017 20.1084 33.6426 20.7009 33.3931C21.2934 33.1373 21.9507 33.0094 22.6727 33.0094C23.3948 33.0094 24.0521 33.1373 24.6445 33.3931C25.237 33.6426 25.7492 34.017 26.1813 34.5161C26.6133 35.009 26.9435 35.6267 27.1718 36.3691C27.4062 37.1054 27.5236 37.9664 27.5236 38.9522ZM24.8296 41.2263V38.9334C24.8296 38.2846 24.7835 37.7324 24.6908 37.2769C24.5983 36.8152 24.4593 36.4378 24.2742 36.1445C24.0891 35.8513 23.8639 35.636 23.5984 35.4988C23.333 35.3615 23.0245 35.2929 22.6727 35.2929C22.3209 35.2929 22.0093 35.3615 21.7377 35.4988C21.4723 35.636 21.2471 35.8513 21.0619 36.1445C20.883 36.4378 20.7472 36.8152 20.6546 37.2769C20.5682 37.7324 20.525 38.2846 20.525 38.9334V41.2263C20.525 41.8502 20.5713 42.3837 20.6639 42.8267C20.7564 43.2696 20.8953 43.6315 21.0804 43.9123C21.2656 44.193 21.4909 44.402 21.7562 44.5393C22.0278 44.6703 22.3394 44.7358 22.6912 44.7358C23.0369 44.7358 23.3424 44.6703 23.6077 44.5393C23.8792 44.402 24.1046 44.193 24.2834 43.9123C24.4625 43.6315 24.5983 43.2696 24.6908 42.8267C24.7835 42.3837 24.8296 41.8502 24.8296 41.2263ZM34.0871 42.0218H31.3283V39.7476H34.0871C34.4697 39.7476 34.7813 39.6603 35.022 39.4856C35.269 39.3109 35.4479 39.0707 35.559 38.765C35.6701 38.453 35.7256 38.1036 35.7256 37.7168C35.7256 37.3237 35.667 36.9587 35.5497 36.6218C35.4386 36.2787 35.2627 36.001 35.022 35.7889C34.7876 35.5768 34.4758 35.4707 34.0871 35.4707H32.1986V46.8228H29.4954V33.1965H34.0871C34.9943 33.1965 35.7749 33.39 36.4291 33.7768C37.0833 34.1636 37.5833 34.697 37.9289 35.3771C38.2807 36.051 38.4566 36.8246 38.4566 37.6981C38.4566 38.5778 38.2807 39.3421 37.9289 39.991C37.5833 40.6336 37.0833 41.1327 36.4291 41.4884C35.7749 41.844 34.9943 42.0218 34.0871 42.0218ZM44.8626 42.0218H42.104V39.7476H44.8626C45.2453 39.7476 45.557 39.6603 45.7975 39.4856C46.0445 39.3109 46.2234 39.0707 46.3345 38.765C46.4456 38.453 46.5012 38.1036 46.5012 37.7168C46.5012 37.3237 46.4425 36.9587 46.3253 36.6218C46.2141 36.2787 46.0382 36.001 45.7975 35.7889C45.5631 35.5768 45.2515 35.4707 44.8626 35.4707H42.9741V46.8228H40.271V33.1965H44.8626C45.7698 33.1965 46.5506 33.39 47.2048 33.7768C47.859 34.1636 48.3588 34.697 48.7044 35.3771C49.0562 36.051 49.2321 36.8246 49.2321 37.6981C49.2321 38.5778 49.0562 39.3421 48.7044 39.991C48.3588 40.6336 47.859 41.1327 47.2048 41.4884C46.5506 41.844 45.7698 42.0218 44.8626 42.0218ZM58.7764 44.558V46.8228H52.9166V44.558H58.7764ZM53.759 33.1965V46.8228H51.0466V33.1965H53.759ZM57.9895 38.7182V40.9175H52.9166V38.7182H57.9895ZM58.758 33.1965V35.4707H52.9166V33.1965H58.758ZM60.3687 33.1965H64.6918C65.593 33.1965 66.3614 33.3525 66.9969 33.6645C67.6326 33.9764 68.1203 34.4381 68.4596 35.0496C68.799 35.661 68.9688 36.4159 68.9688 37.3144C68.9688 38.0506 68.8701 38.6808 68.6726 39.2048C68.4751 39.7227 68.1943 40.1563 67.8301 40.5057C67.466 40.8489 67.0309 41.1234 66.5249 41.3293L65.701 41.8253H62.1924L62.1831 39.5511H64.6178C64.9881 39.5511 65.2936 39.47 65.5343 39.3078C65.7812 39.1393 65.9632 38.9054 66.0805 38.6059C66.2039 38.3002 66.2656 37.9445 66.2656 37.539C66.2656 37.1085 66.21 36.7404 66.0991 36.4346C65.9941 36.1227 65.8244 35.8856 65.5898 35.7234C65.3615 35.5549 65.0623 35.4707 64.6918 35.4707H63.0811V46.8228H60.3687V33.1965ZM66.4878 46.8228L64.0161 40.749L66.8581 40.7397L69.3854 46.6918V46.8228H66.4878ZM82.6975 38.7182V40.983H77.1709V38.7182H82.6975ZM77.9391 33.1965V46.8228H75.2268V33.1965H77.9391ZM84.66 33.1965V46.8228H81.9754V33.1965H84.66ZM94.6025 44.558V46.8228H88.7425V44.558H94.6025ZM89.5849 33.1965V46.8228H86.8725V33.1965H89.5849ZM93.8156 38.7182V40.9175H88.7425V38.7182H93.8156ZM94.5839 33.1965V35.4707H88.7425V33.1965H94.5839ZM98.9997 33.1965V46.8228H96.3059V33.1965H98.9997ZM110.47 39.6634V45.2787C110.278 45.4845 109.997 45.7247 109.627 45.9993C109.263 46.2675 108.785 46.5047 108.192 46.7105C107.606 46.9102 106.89 47.01 106.045 47.01C105.298 47.01 104.619 46.8915 104.008 46.6543C103.403 46.4173 102.882 46.0585 102.443 45.5781C102.011 45.0915 101.681 44.4863 101.453 43.7625C101.225 43.0325 101.11 42.1684 101.11 41.1702V38.8492C101.11 37.8634 101.218 37.0055 101.434 36.2756C101.657 35.5393 101.977 34.9279 102.397 34.4412C102.817 33.9546 103.317 33.5927 103.897 33.3556C104.483 33.1186 105.143 33 105.878 33C106.89 33 107.72 33.1716 108.368 33.5147C109.022 33.8579 109.516 34.3664 109.849 35.0402C110.189 35.714 110.392 36.5407 110.46 37.5203H107.84C107.797 36.9463 107.702 36.497 107.554 36.1726C107.412 35.8482 107.211 35.6173 106.952 35.4801C106.693 35.3366 106.356 35.2648 105.943 35.2648C105.585 35.2648 105.273 35.3303 105.008 35.4614C104.742 35.5861 104.52 35.792 104.341 36.079C104.162 36.366 104.029 36.7341 103.943 37.1834C103.857 37.6326 103.813 38.1816 103.813 38.8305V41.1702C103.813 41.8128 103.863 42.3618 103.962 42.8173C104.06 43.2727 104.205 43.644 104.397 43.931C104.594 44.218 104.841 44.427 105.137 44.558C105.44 44.6828 105.795 44.7452 106.202 44.7452C106.529 44.7452 106.791 44.7109 106.989 44.6423C107.186 44.5736 107.344 44.5019 107.461 44.427C107.584 44.3459 107.686 44.2835 107.766 44.2398V41.7317H105.832V39.6634H110.47ZM119.894 38.7182V40.983H114.367V38.7182H119.894ZM115.135 33.1965V46.8228H112.423V33.1965H115.135ZM121.856 33.1965V46.8228H119.172V33.1965H121.856ZM129.16 33.1965V46.8228H126.466V33.1965H129.16ZM132.511 33.1965V35.4707H123.18V33.1965H132.511ZM139.64 43.2385C139.64 42.9951 139.618 42.7736 139.575 42.574C139.532 42.3743 139.439 42.1903 139.297 42.0218C139.161 41.8534 138.961 41.6849 138.695 41.5164C138.436 41.348 138.097 41.1733 137.677 40.9923C137.177 40.7802 136.693 40.5556 136.224 40.3185C135.755 40.0752 135.332 39.7944 134.955 39.4762C134.579 39.158 134.28 38.7837 134.057 38.3532C133.841 37.9165 133.733 37.4048 133.733 36.8183C133.733 36.2443 133.835 35.7234 134.039 35.2555C134.249 34.7875 134.545 34.3882 134.927 34.0575C135.31 33.7206 135.758 33.4617 136.27 33.2808C136.788 33.0998 137.365 33.0094 138.001 33.0094C138.865 33.0094 139.612 33.1903 140.241 33.5522C140.877 33.914 141.368 34.41 141.713 35.0402C142.065 35.6704 142.241 36.3941 142.241 37.2114H139.538C139.538 36.8246 139.482 36.4846 139.371 36.1913C139.266 35.8918 139.097 35.6579 138.862 35.4894C138.627 35.321 138.325 35.2367 137.955 35.2367C137.609 35.2367 137.322 35.3085 137.094 35.452C136.872 35.5892 136.705 35.7795 136.594 36.0229C136.489 36.2599 136.436 36.5282 136.436 36.8277C136.436 37.0523 136.489 37.2551 136.594 37.436C136.705 37.6107 136.856 37.7698 137.047 37.9133C137.239 38.0506 137.464 38.1847 137.723 38.3158C137.989 38.4468 138.279 38.5747 138.594 38.6995C139.204 38.9428 139.744 39.2111 140.213 39.5043C140.682 39.7913 141.074 40.1158 141.389 40.4776C141.704 40.8333 141.942 41.2357 142.102 41.6849C142.263 42.1341 142.343 42.6457 142.343 43.2197C142.343 43.7875 142.244 44.3053 142.046 44.7733C141.855 45.235 141.574 45.6343 141.204 45.9712C140.834 46.3018 140.386 46.5577 139.862 46.7387C139.343 46.9195 138.763 47.01 138.121 47.01C137.498 47.01 136.909 46.9227 136.353 46.748C135.798 46.567 135.307 46.2957 134.881 45.9338C134.462 45.5656 134.131 45.1008 133.891 44.5393C133.65 43.9715 133.53 43.3008 133.53 42.5272H136.242C136.242 42.939 136.282 43.2915 136.362 43.5847C136.443 43.8717 136.566 44.1026 136.733 44.2773C136.899 44.4457 137.103 44.5736 137.344 44.661C137.59 44.7421 137.871 44.7826 138.186 44.7826C138.544 44.7826 138.828 44.714 139.038 44.5767C139.254 44.4395 139.408 44.2554 139.501 44.0246C139.593 43.7937 139.64 43.5317 139.64 43.2385Z" fill="#935546"/>
<path d="M35.2448 62.4595C35.5453 62.4595 35.8137 62.3998 36.0498 62.2805C36.2859 62.1612 36.4738 61.993 36.6133 61.776C36.7582 61.559 36.836 61.3067 36.8467 61.0192H38.8511C38.8404 61.6158 38.674 62.1503 38.3521 62.6223C38.0301 63.0943 37.6008 63.4687 37.064 63.7453C36.5328 64.0167 35.937 64.1523 35.2771 64.1523C34.6062 64.1523 34.0211 64.0383 33.5221 63.8105C33.0231 63.5827 32.6071 63.2652 32.2744 62.8583C31.947 62.4513 31.7002 61.9793 31.5337 61.4423C31.3728 60.9052 31.2924 60.3302 31.2924 59.717V59.4567C31.2924 58.8435 31.3728 58.2685 31.5337 57.7313C31.7002 57.1943 31.947 56.7222 32.2744 56.3153C32.6071 55.9085 33.0231 55.591 33.5221 55.3632C34.0211 55.1353 34.6034 55.0213 35.269 55.0213C35.972 55.0213 36.5892 55.1597 37.1204 55.4365C37.657 55.7132 38.0756 56.1038 38.3761 56.6083C38.6821 57.1128 38.8404 57.707 38.8511 58.3905H36.8467C36.836 58.0758 36.7663 57.7938 36.6375 57.5442C36.5086 57.2947 36.3261 57.0938 36.09 56.942C35.8539 56.79 35.5667 56.7142 35.2288 56.7142C34.8692 56.7142 34.5687 56.79 34.3271 56.942C34.091 57.0938 33.9057 57.3028 33.7717 57.5687C33.6428 57.829 33.5516 58.122 33.498 58.4475C33.4497 58.7677 33.4255 59.104 33.4255 59.4567V59.717C33.4255 60.0752 33.4497 60.4168 33.498 60.7425C33.5516 61.068 33.6428 61.361 33.7717 61.6213C33.9057 61.8763 34.091 62.0798 34.3271 62.2317C34.5687 62.3837 34.8745 62.4595 35.2448 62.4595ZM42.3528 51.4895V63.9895H40.2196V51.4895H42.3528ZM42.0148 59.2695H41.3868C41.3868 58.6563 41.4673 58.0922 41.6284 57.5767C41.7894 57.0613 42.0174 56.6137 42.3125 56.234C42.6078 55.8488 42.9593 55.5503 43.3672 55.3388C43.7803 55.1272 44.2365 55.0213 44.7357 55.0213C45.165 55.0213 45.554 55.0838 45.9029 55.2085C46.257 55.328 46.5602 55.5205 46.8124 55.7863C47.0647 56.0522 47.2579 56.3995 47.3921 56.828C47.5316 57.2512 47.6013 57.7667 47.6013 58.3743V63.9895H45.4601V58.358C45.4601 57.9512 45.401 57.631 45.283 57.3977C45.165 57.159 44.9958 56.9882 44.7759 56.885C44.5612 56.782 44.2955 56.7303 43.979 56.7303C43.6354 56.7303 43.3403 56.7982 43.0935 56.9338C42.8465 57.064 42.6426 57.2458 42.4817 57.4792C42.326 57.7123 42.208 57.981 42.1274 58.2847C42.0524 58.5885 42.0148 58.9168 42.0148 59.2695ZM51.7309 55.1842V63.9895H49.5978V55.1842H51.7309ZM49.4529 52.8812C49.4529 52.561 49.5602 52.2952 49.7748 52.0835C49.9949 51.872 50.29 51.7662 50.6603 51.7662C51.0306 51.7662 51.323 51.872 51.5377 52.0835C51.7578 52.2952 51.8677 52.561 51.8677 52.8812C51.8677 53.1958 51.7578 53.4588 51.5377 53.6705C51.323 53.882 51.0306 53.9878 50.6603 53.9878C50.29 53.9878 49.9949 53.882 49.7748 53.6705C49.5602 53.4588 49.4529 53.1958 49.4529 52.8812ZM55.8848 56.9827V63.9895H53.7595V55.1842H55.772L55.8848 56.9827ZM58.5331 55.1272L58.5009 57.1292C58.3829 57.1075 58.2487 57.0912 58.0984 57.0803C57.9534 57.0695 57.8166 57.064 57.6879 57.064C57.3604 57.064 57.0734 57.1102 56.8265 57.2023C56.5797 57.2892 56.3731 57.4167 56.2067 57.5848C56.0457 57.753 55.9222 57.9592 55.8365 58.2033C55.7506 58.442 55.7023 58.7133 55.6915 59.0172L55.2326 58.9602C55.2326 58.4013 55.289 57.8833 55.4017 57.4058C55.5143 56.9283 55.678 56.5107 55.8927 56.1527C56.1073 55.7945 56.3757 55.5178 56.6977 55.3225C57.0251 55.1218 57.4008 55.0213 57.8247 55.0213C57.9427 55.0213 58.0688 55.0323 58.203 55.054C58.3425 55.0702 58.4526 55.0947 58.5331 55.1272ZM59.0966 59.6763V59.5055C59.0966 58.8598 59.1878 58.2658 59.3703 57.7232C59.5528 57.1753 59.8184 56.7005 60.1672 56.299C60.5161 55.8977 60.9427 55.5857 61.4472 55.3632C61.9517 55.1353 62.5259 55.0213 63.1698 55.0213C63.8245 55.0213 64.4042 55.1353 64.9086 55.3632C65.4184 55.5857 65.8477 55.8977 66.1965 56.299C66.5454 56.7005 66.8111 57.1753 66.9935 57.7232C67.176 58.2658 67.2673 58.8598 67.2673 59.5055V59.6763C67.2673 60.3165 67.176 60.9107 66.9935 61.4585C66.8111 62.0012 66.5454 62.4758 66.1965 62.8827C65.8477 63.2842 65.4212 63.5962 64.9167 63.8187C64.4122 64.041 63.8352 64.1523 63.186 64.1523C62.5419 64.1523 61.965 64.041 61.4553 63.8187C60.9454 63.5962 60.5161 63.2842 60.1672 62.8827C59.8184 62.4758 59.5528 62.0012 59.3703 61.4585C59.1878 60.9107 59.0966 60.3165 59.0966 59.6763ZM61.2218 59.5055V59.6763C61.2218 60.0615 61.2593 60.4223 61.3344 60.7587C61.4096 61.095 61.525 61.3908 61.6806 61.6458C61.8363 61.9007 62.0376 62.1015 62.2844 62.248C62.5366 62.389 62.8371 62.4595 63.186 62.4595C63.5294 62.4595 63.8245 62.389 64.0715 62.248C64.3183 62.1015 64.5196 61.9007 64.6752 61.6458C64.8361 61.3908 64.9543 61.095 65.0293 60.7587C65.1045 60.4223 65.1421 60.0615 65.1421 59.6763V59.5055C65.1421 59.1257 65.1045 58.7703 65.0293 58.4393C64.9543 58.103 64.8361 57.8073 64.6752 57.5523C64.5196 57.2918 64.3156 57.0885 64.0634 56.942C63.8166 56.79 63.5187 56.7142 63.1698 56.7142C62.8264 56.7142 62.5312 56.79 62.2844 56.942C62.0376 57.0885 61.8363 57.2918 61.6806 57.5523C61.525 57.8073 61.4096 58.103 61.3344 58.4393C61.2593 58.7703 61.2218 59.1257 61.2218 59.5055ZM70.9379 56.8768V67.3748H68.8048V55.1842H70.777L70.9379 56.8768ZM76.5327 59.4973V59.6682C76.5327 60.3083 76.4575 60.9025 76.3072 61.4505C76.1624 61.993 75.9478 62.4677 75.6632 62.8747C75.3788 63.276 75.0247 63.5907 74.6007 63.8187C74.1821 64.041 73.699 64.1523 73.1517 64.1523C72.6151 64.1523 72.1482 64.0492 71.751 63.843C71.3539 63.6315 71.0184 63.333 70.7447 62.9478C70.4711 62.5627 70.251 62.115 70.0846 61.605C69.9237 61.0897 69.8029 60.5282 69.7224 59.9205V59.3752C69.8029 58.7297 69.9237 58.1437 70.0846 57.6175C70.251 57.0857 70.4711 56.6273 70.7447 56.2422C71.0184 55.8515 71.3513 55.5503 71.743 55.3388C72.1401 55.1272 72.6044 55.0213 73.1356 55.0213C73.6883 55.0213 74.174 55.1272 74.5926 55.3388C75.0166 55.5503 75.3734 55.8542 75.6632 56.2502C75.953 56.6463 76.1703 57.1183 76.3152 57.6663C76.4601 58.2142 76.5327 58.8245 76.5327 59.4973ZM74.3994 59.6682V59.4973C74.3994 59.1067 74.3646 58.7458 74.2947 58.415C74.225 58.0787 74.1176 57.7857 73.9727 57.536C73.8278 57.281 73.64 57.083 73.4092 56.942C73.1786 56.8008 72.8995 56.7303 72.5721 56.7303C72.2448 56.7303 71.9631 56.7847 71.7268 56.8932C71.4907 57.0017 71.2975 57.1563 71.1473 57.357C70.997 57.5578 70.8789 57.7965 70.793 58.0732C70.7126 58.3445 70.6588 58.6455 70.6321 58.9765V60.3273C70.6804 60.7288 70.7742 61.0897 70.9139 61.4097C71.0533 61.7298 71.2573 61.9848 71.5257 62.1747C71.7993 62.3647 72.1535 62.4595 72.5882 62.4595C72.9156 62.4595 73.1946 62.3863 73.4254 62.2398C73.6562 62.0933 73.844 61.8927 73.9889 61.6377C74.1338 61.3772 74.2385 61.0788 74.3028 60.7425C74.3672 60.406 74.3994 60.048 74.3994 59.6682ZM80.2114 56.9827V63.9895H78.0863V55.1842H80.0988L80.2114 56.9827ZM82.8599 55.1272L82.8276 57.1292C82.7096 57.1075 82.5754 57.0912 82.4252 57.0803C82.2803 57.0695 82.1434 57.064 82.0147 57.064C81.6873 57.064 81.4001 57.1102 81.1533 57.2023C80.9065 57.2892 80.6997 57.4167 80.5334 57.5848C80.3725 57.753 80.249 57.9592 80.1631 58.2033C80.0772 58.442 80.0289 58.7133 80.0182 59.0172L79.5594 58.9602C79.5594 58.4013 79.6158 57.8833 79.7284 57.4058C79.8411 56.9283 80.0048 56.5107 80.2195 56.1527C80.4341 55.7945 80.7025 55.5178 81.0245 55.3225C81.3518 55.1218 81.7275 55.0213 82.1515 55.0213C82.2695 55.0213 82.3957 55.0323 82.5299 55.054C82.6693 55.0702 82.7793 55.0947 82.8599 55.1272ZM88.5511 62.1178V58.0568C88.5511 57.7585 88.5002 57.5008 88.3981 57.2838C88.2962 57.0668 88.1406 56.8985 87.9312 56.7792C87.722 56.6598 87.4562 56.6002 87.1343 56.6002C86.8499 56.6002 86.6003 56.649 86.3856 56.7467C86.1764 56.8443 86.0154 56.9827 85.9028 57.1617C85.79 57.3353 85.7336 57.536 85.7336 57.7638H83.6005C83.6005 57.4003 83.6864 57.0558 83.858 56.7303C84.0298 56.3995 84.2739 56.1065 84.5906 55.8515C84.9126 55.591 85.2962 55.3877 85.7417 55.2412C86.1924 55.0947 86.6969 55.0213 87.2551 55.0213C87.9152 55.0213 88.5028 55.1353 89.018 55.3632C89.5386 55.5857 89.9465 55.922 90.2416 56.3723C90.5421 56.8227 90.6923 57.3895 90.6923 58.0732V61.9143C90.6923 62.3538 90.7192 62.7308 90.7729 63.0455C90.832 63.3547 90.9179 63.6233 91.0305 63.8512V63.9895H88.865C88.7631 63.767 88.6853 63.485 88.6316 63.1432C88.578 62.796 88.5511 62.4542 88.5511 62.1178ZM88.849 58.6265L88.865 59.9042H87.5207C87.188 59.9042 86.8956 59.9395 86.6433 60.01C86.3911 60.0752 86.1845 60.1728 86.0234 60.303C85.8624 60.4278 85.7417 60.5797 85.6612 60.7587C85.5806 60.9323 85.5404 61.1303 85.5404 61.3528C85.5404 61.5698 85.5887 61.7652 85.6853 61.9387C85.7874 62.1123 85.9323 62.2507 86.1201 62.3538C86.3133 62.4513 86.5386 62.5002 86.7963 62.5002C87.1719 62.5002 87.4993 62.4243 87.7784 62.2723C88.0573 62.115 88.2748 61.9252 88.4304 61.7027C88.586 61.4803 88.6691 61.2687 88.6799 61.068L89.2917 61.9957C89.2166 62.2182 89.1039 62.4542 88.9535 62.7037C88.8033 62.9533 88.6101 63.1865 88.374 63.4035C88.138 63.6205 87.8534 63.7997 87.5207 63.9407C87.188 64.0817 86.8016 64.1523 86.3616 64.1523C85.7981 64.1523 85.2936 64.0383 84.8481 63.8105C84.4027 63.5827 84.0512 63.2707 83.7937 62.8747C83.536 62.4785 83.4072 62.0282 83.4072 61.5237C83.4072 61.0572 83.4931 60.6448 83.6648 60.2867C83.8366 59.9287 84.0914 59.6275 84.4296 59.3833C84.7677 59.1338 85.1863 58.9467 85.6853 58.8218C86.1898 58.6917 86.7668 58.6265 87.416 58.6265H88.849ZM96.1824 62.4595C96.4829 62.4595 96.7513 62.3998 96.9874 62.2805C97.2235 62.1612 97.4114 61.993 97.5509 61.776C97.6958 61.559 97.7736 61.3067 97.7843 61.0192H99.7887C99.778 61.6158 99.6117 62.1503 99.2897 62.6223C98.9677 63.0943 98.5384 63.4687 98.0016 63.7453C97.4704 64.0167 96.8746 64.1523 96.2145 64.1523C95.5437 64.1523 94.9588 64.0383 94.4597 63.8105C93.9607 63.5827 93.5448 63.2652 93.2121 62.8583C92.8847 62.4513 92.6377 61.9793 92.4713 61.4423C92.3104 60.9052 92.23 60.3302 92.23 59.717V59.4567C92.23 58.8435 92.3104 58.2685 92.4713 57.7313C92.6377 57.1943 92.8847 56.7222 93.2121 56.3153C93.5448 55.9085 93.9607 55.591 94.4597 55.3632C94.9588 55.1353 95.5411 55.0213 96.2066 55.0213C96.9096 55.0213 97.5267 55.1597 98.058 55.4365C98.5946 55.7132 99.0132 56.1038 99.3138 56.6083C99.6197 57.1128 99.778 57.707 99.7887 58.3905H97.7843C97.7736 58.0758 97.7039 57.7938 97.575 57.5442C97.4462 57.2947 97.2637 57.0938 97.0276 56.942C96.7915 56.79 96.5044 56.7142 96.1662 56.7142C95.8067 56.7142 95.5063 56.79 95.2648 56.942C95.0285 57.0938 94.8434 57.3028 94.7093 57.5687C94.5804 57.829 94.4893 58.122 94.4355 58.4475C94.3872 58.7677 94.3631 59.104 94.3631 59.4567V59.717C94.3631 60.0752 94.3872 60.4168 94.4355 60.7425C94.4893 61.068 94.5804 61.361 94.7093 61.6213C94.8434 61.8763 95.0285 62.0798 95.2648 62.2317C95.5063 62.3837 95.8121 62.4595 96.1824 62.4595ZM105.327 55.1842V56.7303H100.336V55.1842H105.327ZM101.672 53.0195H103.806V61.4505C103.806 61.7108 103.841 61.9117 103.91 62.0527C103.98 62.1937 104.085 62.2887 104.224 62.3375C104.364 62.3863 104.53 62.4107 104.723 62.4107C104.863 62.4107 104.992 62.4027 105.11 62.3863C105.228 62.37 105.327 62.3538 105.408 62.3375L105.416 63.9488C105.239 64.0085 105.037 64.0573 104.812 64.0953C104.592 64.1333 104.342 64.1523 104.063 64.1523C103.586 64.1523 103.167 64.0708 102.808 63.9082C102.448 63.74 102.169 63.4713 101.97 63.1025C101.772 62.7282 101.672 62.2343 101.672 61.6213V53.0195ZM108.998 55.1842V63.9895H106.865V55.1842H108.998ZM106.72 52.8812C106.72 52.561 106.827 52.2952 107.042 52.0835C107.262 51.872 107.557 51.7662 107.927 51.7662C108.297 51.7662 108.59 51.872 108.805 52.0835C109.025 52.2952 109.135 52.561 109.135 52.8812C109.135 53.1958 109.025 53.4588 108.805 53.6705C108.59 53.882 108.297 53.9878 107.927 53.9878C107.557 53.9878 107.262 53.882 107.042 53.6705C106.827 53.4588 106.72 53.1958 106.72 52.8812ZM114.601 62.4595C114.901 62.4595 115.169 62.3998 115.406 62.2805C115.642 62.1612 115.829 61.993 115.969 61.776C116.114 61.559 116.192 61.3067 116.203 61.0192H118.207C118.196 61.6158 118.03 62.1503 117.708 62.6223C117.386 63.0943 116.956 63.4687 116.42 63.7453C115.888 64.0167 115.293 64.1523 114.633 64.1523C113.962 64.1523 113.377 64.0383 112.878 63.8105C112.379 63.5827 111.963 63.2652 111.63 62.8583C111.303 62.4513 111.056 61.9793 110.89 61.4423C110.729 60.9052 110.648 60.3302 110.648 59.717V59.4567C110.648 58.8435 110.729 58.2685 110.89 57.7313C111.056 57.1943 111.303 56.7222 111.63 56.3153C111.963 55.9085 112.379 55.591 112.878 55.3632C113.377 55.1353 113.959 55.0213 114.625 55.0213C115.328 55.0213 115.945 55.1597 116.476 55.4365C117.013 55.7132 117.431 56.1038 117.732 56.6083C118.038 57.1128 118.196 57.707 118.207 58.3905H116.203C116.192 58.0758 116.122 57.7938 115.993 57.5442C115.864 57.2947 115.682 57.0938 115.446 56.942C115.21 56.79 114.923 56.7142 114.584 56.7142C114.225 56.7142 113.924 56.79 113.683 56.942C113.447 57.0938 113.262 57.3028 113.127 57.5687C112.999 57.829 112.907 58.122 112.854 58.4475C112.805 58.7677 112.781 59.104 112.781 59.4567V59.717C112.781 60.0752 112.805 60.4168 112.854 60.7425C112.907 61.068 112.999 61.361 113.127 61.6213C113.262 61.8763 113.447 62.0798 113.683 62.2317C113.924 62.3837 114.23 62.4595 114.601 62.4595Z" fill="#935546"/>
</svg>
