<svg width="30" height="30" viewBox="0 0 30 30" fill="none" xmlns="http://www.w3.org/2000/svg">
<g clip-path="url(#clip0_77_1102)">
<path fill-rule="evenodd" clip-rule="evenodd" d="M11.8522 0.153807L17.9841 4.61883L11.8522 0.153807ZM22.4492 9.37656L29.4146 13.8912L22.4492 9.37656ZM5.19929 7.8783V19.785V7.8783ZM28.1297 12.0754V27.837V12.0754ZM3.96893 17.8601L5.17945 18.7233L3.96893 17.8601ZM4.27156 9.7933L13.7721 0.0843506L4.27156 9.7933ZM19.5072 9.45098L26.7108 14.3079V30" fill="#6E6F70"/>
<path d="M11.8522 0.153807L17.9841 4.61883M22.4492 9.37656L29.4146 13.8912M5.19929 7.8783V19.785M28.1297 12.0754V27.837M3.96893 17.8601L5.17945 18.7233M4.27156 9.7933L13.7721 0.0843506M19.5072 9.45098L26.7108 14.3079V30" stroke="#565757" stroke-width="0.5"/>
<path fill-rule="evenodd" clip-rule="evenodd" d="M0 20.3407L3.96891 17.8601V29.8313H0V20.3407ZM10.8054 4.53945H10.855V17.9345H15.5184V12.9734L18.9912 9.50059V7.43675C18.9912 7.23335 13.534 3.39343 13.3157 3.18506C13.3603 3.07095 13.3603 4.82223 13.3603 4.82223L12.3681 3.83001L13.529 2.62445L19.5469 7.08947V9.53035V29.8313H15.578V21.1741H10.9145V29.8313H6.94559V8.49844L10.8054 4.53945Z" fill="#C59648"/>
</g>
<defs>
<clipPath id="clip0_77_1102">
<rect width="29.4791" height="30" fill="white"/>
</clipPath>
</defs>
</svg>
