<svg width="16" height="11" viewBox="0 0 16 11" fill="none" xmlns="http://www.w3.org/2000/svg">
<path d="M15.3338 2.16797C15.6619 3.31641 15.6619 5.77734 15.6619 5.77734C15.6619 5.77734 15.6619 8.21094 15.3338 9.38672C15.1697 10.043 14.6502 10.5352 14.0213 10.6992C12.8455 11 8.19707 11 8.19707 11C8.19707 11 3.52129 11 2.34551 10.6992C1.7166 10.5352 1.19707 10.043 1.03301 9.38672C0.704883 8.21094 0.704883 5.77734 0.704883 5.77734C0.704883 5.77734 0.704883 3.31641 1.03301 2.16797C1.19707 1.51172 1.7166 0.992188 2.34551 0.828125C3.52129 0.5 8.19707 0.5 8.19707 0.5C8.19707 0.5 12.8455 0.5 14.0213 0.828125C14.6502 0.992188 15.1697 1.51172 15.3338 2.16797ZM6.66582 7.99219L10.5486 5.77734L6.66582 3.5625V7.99219Z" fill="black"/>
</svg>
