<svg width="13" height="13" viewBox="0 0 13 13" fill="none" xmlns="http://www.w3.org/2000/svg">
<path d="M6.1752 3.60547C7.89785 3.60547 9.31973 5.02734 9.31973 6.75C9.31973 8.5 7.89785 9.89453 6.1752 9.89453C4.4252 9.89453 3.03066 8.5 3.03066 6.75C3.03066 5.02734 4.4252 3.60547 6.1752 3.60547ZM6.1752 8.80078C7.29629 8.80078 8.19863 7.89844 8.19863 6.75C8.19863 5.62891 7.29629 4.72656 6.1752 4.72656C5.02676 4.72656 4.12441 5.62891 4.12441 6.75C4.12441 7.89844 5.0541 8.80078 6.1752 8.80078ZM10.1674 3.49609C10.1674 3.90625 9.83926 4.23438 9.4291 4.23438C9.01895 4.23438 8.69082 3.90625 8.69082 3.49609C8.69082 3.08594 9.01895 2.75781 9.4291 2.75781C9.83926 2.75781 10.1674 3.08594 10.1674 3.49609ZM12.2455 4.23438C12.3002 5.24609 12.3002 8.28125 12.2455 9.29297C12.1908 10.2773 11.9721 11.125 11.2611 11.8633C10.5502 12.5742 9.6752 12.793 8.69082 12.8477C7.6791 12.9023 4.64395 12.9023 3.63223 12.8477C2.64785 12.793 1.8002 12.5742 1.06191 11.8633C0.350976 11.125 0.132226 10.2773 0.077539 9.29297C0.0228515 8.28125 0.0228515 5.24609 0.077539 4.23438C0.132226 3.25 0.350976 2.375 1.06191 1.66406C1.8002 0.953125 2.64785 0.734375 3.63223 0.679688C4.64395 0.625 7.6791 0.625 8.69082 0.679688C9.6752 0.734375 10.5502 0.953125 11.2611 1.66406C11.9721 2.375 12.1908 3.25 12.2455 4.23438ZM10.933 10.3594C11.2611 9.56641 11.1791 7.65234 11.1791 6.75C11.1791 5.875 11.2611 3.96094 10.933 3.14062C10.7143 2.62109 10.3041 2.18359 9.78457 1.99219C8.96426 1.66406 7.0502 1.74609 6.1752 1.74609C5.27285 1.74609 3.35879 1.66406 2.56582 1.99219C2.01895 2.21094 1.60879 2.62109 1.39004 3.14062C1.06191 3.96094 1.14395 5.875 1.14395 6.75C1.14395 7.65234 1.06191 9.56641 1.39004 10.3594C1.60879 10.9062 2.01895 11.3164 2.56582 11.5352C3.35879 11.8633 5.27285 11.7812 6.1752 11.7812C7.0502 11.7812 8.96426 11.8633 9.78457 11.5352C10.3041 11.3164 10.7416 10.9062 10.933 10.3594Z" fill="black"/>
</svg>
