<svg width="40" height="60" viewBox="0 0 40 60" fill="none" xmlns="http://www.w3.org/2000/svg">
<path d="M20.115 4.68808C19.4669 4.68339 18.9384 5.20488 18.9337 5.85175C18.929 6.49863 19.4493 7.02714 20.0974 7.03183C20.7443 7.03652 21.2728 6.51621 21.2775 5.86933C21.2821 5.22246 20.7618 4.69394 20.115 4.68808ZM20.0616 11.7192C15.5369 11.6871 11.8313 15.3374 11.7971 19.8607C11.763 24.3838 15.4153 28.0911 19.9386 28.1252L20.0014 28.1255C24.4959 28.1255 28.1691 24.4861 28.2031 19.9837C28.2372 15.4609 24.5851 11.7533 20.0616 11.7192ZM20.0012 25.7818L19.9562 25.7816C16.7252 25.7572 14.1164 23.109 14.1407 19.8783C14.165 16.6621 16.7886 14.0626 19.9991 14.0626L20.0441 14.0628C23.275 14.0872 25.8839 16.7354 25.8595 19.9662C25.8351 23.1824 23.2116 25.7818 20.0012 25.7818ZM25.1131 5.57683C24.5035 5.3605 23.8333 5.67984 23.617 6.28992C23.4008 6.89999 23.7201 7.56972 24.3301 7.78605C29.4918 9.61546 32.9319 14.5316 32.8906 20.0191C32.8858 20.6662 33.4065 21.1949 34.0537 21.1998H34.0627C34.7056 21.1998 35.2295 20.6809 35.2344 20.0367C35.2831 13.5507 31.2157 7.73976 25.1131 5.57683Z" fill="#C59648"/>
<path d="M27.1907 44.1143C34.9852 34.0813 39.8563 28.8495 39.9221 20.0716C40.0046 9.02754 31.0418 0 19.9986 0C9.08419 0 0.161765 8.83922 0.0787958 19.7728C0.0117645 28.7886 4.97337 34.0133 12.8216 44.1127C5.01403 45.2794 0.0787958 48.2111 0.0787958 51.7969C0.0787958 54.1989 2.29903 56.3543 6.33063 57.866C10.0001 59.242 14.8549 59.9999 20.0004 59.9999C25.146 59.9999 30.0007 59.242 33.6702 57.866C37.7018 56.3542 39.9221 54.1987 39.9221 51.7968C39.9221 48.2129 34.9914 45.282 27.1907 44.1143ZM2.42243 19.7905C2.49555 10.1426 10.3676 2.34375 19.9988 2.34375C29.744 2.34375 37.6511 10.3111 37.5784 20.0542C37.5161 28.3902 32.3502 33.5273 24.1029 44.2785C22.6319 46.1952 21.2809 48.0074 20.0022 49.7801C18.7272 48.0063 17.4032 46.2266 15.9101 44.2778C7.32192 33.0765 2.35891 28.3276 2.42243 19.7905ZM20.0004 57.6562C9.93977 57.6562 2.42243 54.5629 2.42243 51.7969C2.42243 49.7456 6.91634 47.1544 14.4724 46.2571C16.1426 48.4486 17.607 50.4396 19.0433 52.473C19.1514 52.6261 19.2946 52.751 19.461 52.8373C19.6274 52.9235 19.812 52.9686 19.9994 52.9688H20.0004C20.1877 52.9687 20.3722 52.9239 20.5385 52.8379C20.7049 52.7519 20.8482 52.6273 20.9565 52.4746C22.3791 50.4676 23.8836 48.4275 25.5395 46.2584C33.0885 47.1566 37.5784 49.747 37.5784 51.797C37.5783 54.5629 30.0611 57.6562 20.0004 57.6562Z" fill="#C59648"/>
</svg>
