<svg width="54" height="60" viewBox="0 0 54 60" fill="none" xmlns="http://www.w3.org/2000/svg">
<path d="M2.64355 57.4002L18.0061 42.0377" stroke="#C59648" stroke-width="1.5" stroke-miterlimit="10" stroke-linecap="round" stroke-linejoin="round"/>
<path d="M51.3561 57.4002L35.8164 41.8605" stroke="#C59648" stroke-width="1.5" stroke-miterlimit="10" stroke-linecap="round" stroke-linejoin="round"/>
<path d="M32.2734 58.825H47.9169C50.6034 58.825 52.7812 56.6471 52.7812 53.9606V26.7883C52.7812 25.4988 52.2691 24.262 51.3575 23.3498L47.1468 19.1372" stroke="#C59648" stroke-width="1.5" stroke-miterlimit="10" stroke-linecap="round" stroke-linejoin="round"/>
<path d="M6.81573 19.1877L2.64445 23.3494C2.19245 23.8011 1.83389 24.3375 1.58926 24.9279C1.34464 25.5182 1.21873 26.151 1.21875 26.7901V53.9605C1.21875 56.647 3.39656 58.825 6.08307 58.825H21.7264" stroke="#C59648" stroke-width="1.5" stroke-miterlimit="10" stroke-linecap="round" stroke-linejoin="round"/>
<path d="M35.5147 7.49707L29.1979 1.17658L24.8324 1.17518L18.5068 7.49695" stroke="#C59648" stroke-width="1.5" stroke-miterlimit="10" stroke-linecap="round" stroke-linejoin="round"/>
<path d="M52.2945 25.2608L30.4539 47.1149C28.5547 49.0151 25.4748 49.016 23.5746 47.1169L1.78613 25.3418" stroke="#C59648" stroke-width="1.5" stroke-miterlimit="10" stroke-linecap="round" stroke-linejoin="round"/>
<path d="M28.4183 29.583H26.5541C23.8221 29.583 21.6075 27.3683 21.6075 24.6364C21.6075 21.9045 23.8221 19.6897 26.5541 19.6897C29.1205 19.6897 31.2009 21.7701 31.2009 24.3365V27.0492C31.2009 28.6208 32.475 29.8948 34.0467 29.8948C35.6183 29.8948 36.8924 28.6208 36.8924 27.0492V24.6477C36.8924 19.1842 32.4634 14.7552 26.9999 14.7552C21.5364 14.7552 17.1074 19.1842 17.1074 24.6477C17.1074 30.1947 21.6042 34.6917 27.1514 34.6917H34.2738" stroke="#C59648" stroke-width="1.5" stroke-miterlimit="10" stroke-linecap="round" stroke-linejoin="round"/>
<path d="M6.84375 30.3807V11.0126C6.84375 9.0709 8.41769 7.49696 10.3594 7.49696H43.6405C45.5822 7.49696 47.1561 9.0709 47.1561 11.0126V29.9969" stroke="#C59648" stroke-width="1.5" stroke-miterlimit="10" stroke-linecap="round" stroke-linejoin="round"/>
</svg>
