<svg width="60" height="60" viewBox="0 0 60 60" fill="none" xmlns="http://www.w3.org/2000/svg">
<path d="M34.1514 1.18492C47.758 1.18492 58.8275 12.2544 58.8275 25.8609" stroke="#C59648" stroke-width="1.5" stroke-miterlimit="10" stroke-linecap="round" stroke-linejoin="round"/>
<path d="M34.1514 8.2349C43.8698 8.2349 51.7775 16.1427 51.7775 25.861" stroke="#C59648" stroke-width="1.5" stroke-miterlimit="10" stroke-linecap="round" stroke-linejoin="round"/>
<path d="M34.1514 15.286C39.9827 15.286 44.7263 20.0297 44.7263 25.8609" stroke="#C59648" stroke-width="1.5" stroke-miterlimit="10" stroke-linecap="round" stroke-linejoin="round"/>
<path d="M34.1514 22.336C36.0978 22.336 37.6764 23.9147 37.6764 25.861" stroke="#C59648" stroke-width="1.5" stroke-miterlimit="10" stroke-linecap="round" stroke-linejoin="round"/>
<path d="M20.791 38.4849C21.024 38.4849 21.2129 38.2961 21.2129 38.0631C21.2129 37.8301 21.024 37.6412 20.791 37.6412C20.5581 37.6412 20.3691 37.8302 20.3691 38.0631C20.3691 38.296 20.5581 38.4849 20.791 38.4849Z" fill="#C59648" stroke="#C59648" stroke-width="1.5"/>
<path d="M17.3665 34.0556C16.6217 33.0772 15.9172 32.0686 15.2551 31.0324C14.3833 29.6673 14.647 27.8591 15.7918 26.7142L19.7704 22.7355C20.6269 21.8802 20.6269 20.4915 19.7704 19.6359L10.407 10.2728C9.55157 9.41605 8.16302 9.41605 7.30755 10.2728L4.93791 12.6422C1.09194 16.4872 0.0524926 22.3559 2.46655 27.2285C6.76146 35.8992 15.5997 49.1905 32.627 57.5401C37.5149 59.9356 43.4106 58.9195 47.259 55.0711L49.6824 52.6476C50.5389 51.7922 50.5389 50.4035 49.6824 49.5468L40.3191 40.1848C39.4636 39.3281 38.075 39.3281 37.2196 40.1848L33.2411 44.1633C32.096 45.3081 30.2879 45.5718 28.9226 44.7001C27.4488 43.7582 26.0312 42.731 24.6771 41.6239" stroke="#C59648" stroke-width="1.5" stroke-miterlimit="10" stroke-linecap="round" stroke-linejoin="round"/>
</svg>
