<svg width="30" height="30" viewBox="0 0 30 30" fill="none" xmlns="http://www.w3.org/2000/svg">
<path fill-rule="evenodd" clip-rule="evenodd" d="M11.8522 0.153807L17.9842 4.61883L11.8522 0.153807ZM22.4492 9.37656L29.4147 13.8912L22.4492 9.37656ZM5.19936 7.8783V19.785V7.8783ZM28.1297 12.0754V27.837V12.0754ZM3.96899 17.8601L5.17951 18.7233L3.96899 17.8601ZM4.27162 9.7933L13.7722 0.0843506L4.27162 9.7933ZM19.5073 9.45098L26.7108 14.3079V30" fill="#6E6F70"/>
<path d="M11.8522 0.153807L17.9842 4.61883M22.4492 9.37656L29.4147 13.8912M5.19936 7.8783V19.785M28.1297 12.0754V27.837M3.96899 17.8601L5.17951 18.7233M4.27162 9.7933L13.7722 0.0843506M19.5073 9.45098L26.7108 14.3079V30" stroke="#565757" stroke-width="0.5"/>
<path fill-rule="evenodd" clip-rule="evenodd" d="M0 20.3407L3.96891 17.8602V29.8314H0V20.3407ZM10.8054 4.53951H10.855V17.9346H15.5184V12.9734L18.9912 9.50065V7.43681C18.9912 7.23341 13.534 3.39349 13.3157 3.18512C13.3603 3.07101 13.3603 4.8223 13.3603 4.8223L12.3681 3.83007L13.529 2.62451L19.5469 7.08954V9.53041V29.8314H15.578V21.1742H10.9145V29.8314H6.94559V8.4985L10.8054 4.53951Z" fill="white"/>
</svg>
